<?xml version="1.0" encoding="UTF-8" standalone="no"?>
<!DOCTYPE svg PUBLIC "-//W3C//DTD SVG 1.1//EN"
 "http://www.w3.org/Graphics/SVG/1.1/DTD/svg11.dtd">
<!-- Generated by graphviz version 13.1.2 (20250808.2320)
 -->
<!-- Title: mini_ast Pages: 1 -->
<svg width="3963pt" height="620pt"
 viewBox="0.00 0.00 3963.00 620.00" xmlns="http://www.w3.org/2000/svg" xmlns:xlink="http://www.w3.org/1999/xlink">
<g id="graph0" class="graph" transform="scale(1 1) rotate(0) translate(4 616)">
<title>mini_ast</title>
<polygon fill="white" stroke="none" points="-4,4 -4,-616 3959.42,-616 3959.42,4 -4,4"/>
<!-- n0 -->
<g id="node1" class="node">
<title>n0</title>
<path fill="#f5f5f5" stroke="#424242" d="M701.5,-612C701.5,-612 667.5,-612 667.5,-612 661.5,-612 655.5,-606 655.5,-600 655.5,-600 655.5,-588 655.5,-588 655.5,-582 661.5,-576 667.5,-576 667.5,-576 701.5,-576 701.5,-576 707.5,-576 713.5,-582 713.5,-588 713.5,-588 713.5,-600 713.5,-600 713.5,-606 707.5,-612 701.5,-612"/>
<text xml:space="preserve" text-anchor="middle" x="684.5" y="-590.88" font-family="Courier,monospace" font-size="10.00">Program</text>
</g>
<!-- n1 -->
<g id="node2" class="node">
<title>n1</title>
<path fill="#f5f5f5" stroke="#424242" d="M485.5,-540C485.5,-540 455.5,-540 455.5,-540 449.5,-540 443.5,-534 443.5,-528 443.5,-528 443.5,-516 443.5,-516 443.5,-510 449.5,-504 455.5,-504 455.5,-504 485.5,-504 485.5,-504 491.5,-504 497.5,-510 497.5,-516 497.5,-516 497.5,-528 497.5,-528 497.5,-534 491.5,-540 485.5,-540"/>
<text xml:space="preserve" text-anchor="middle" x="470.5" y="-518.88" font-family="Courier,monospace" font-size="10.00">Types</text>
</g>
<!-- n0&#45;&gt;n1 -->
<g id="edge9" class="edge">
<title>n0&#45;&gt;n1</title>
<path fill="none" stroke="#757575" d="M655.19,-583.41C616.24,-570.67 547.47,-548.18 505.74,-534.53"/>
<polygon fill="#757575" stroke="#757575" points="506.62,-532.24 499.2,-532.39 505.1,-536.89 506.62,-532.24"/>
</g>
<!-- n10 -->
<g id="node11" class="node">
<title>n10</title>
<path fill="#f5f5f5" stroke="#424242" d="M725.5,-540C725.5,-540 643.5,-540 643.5,-540 637.5,-540 631.5,-534 631.5,-528 631.5,-528 631.5,-516 631.5,-516 631.5,-510 637.5,-504 643.5,-504 643.5,-504 725.5,-504 725.5,-504 731.5,-504 737.5,-510 737.5,-516 737.5,-516 737.5,-528 737.5,-528 737.5,-534 731.5,-540 725.5,-540"/>
<text xml:space="preserve" text-anchor="middle" x="684.5" y="-518.88" font-family="Courier,monospace" font-size="10.00">Top Level Decls</text>
</g>
<!-- n0&#45;&gt;n10 -->
<g id="edge12" class="edge">
<title>n0&#45;&gt;n10</title>
<path fill="none" stroke="#757575" d="M684.5,-575.7C684.5,-567.47 684.5,-557.48 684.5,-548.42"/>
<polygon fill="#757575" stroke="#757575" points="686.95,-548.62 684.5,-541.62 682.05,-548.62 686.95,-548.62"/>
</g>
<!-- n13 -->
<g id="node14" class="node">
<title>n13</title>
<path fill="#f5f5f5" stroke="#424242" d="M986.5,-540C986.5,-540 940.5,-540 940.5,-540 934.5,-540 928.5,-534 928.5,-528 928.5,-528 928.5,-516 928.5,-516 928.5,-510 934.5,-504 940.5,-504 940.5,-504 986.5,-504 986.5,-504 992.5,-504 998.5,-510 998.5,-516 998.5,-516 998.5,-528 998.5,-528 998.5,-534 992.5,-540 986.5,-540"/>
<text xml:space="preserve" text-anchor="middle" x="963.5" y="-518.88" font-family="Courier,monospace" font-size="10.00">Functions</text>
</g>
<!-- n0&#45;&gt;n13 -->
<g id="edge96" class="edge">
<title>n0&#45;&gt;n13</title>
<path fill="none" stroke="#757575" d="M713.83,-585.64C763.04,-573.3 862.45,-548.35 919.88,-533.95"/>
<polygon fill="#757575" stroke="#757575" points="920.37,-536.35 926.57,-532.27 919.18,-531.59 920.37,-536.35"/>
</g>
<!-- n2 -->
<g id="node3" class="node">
<title>n2</title>
<path fill="#f5f5f5" stroke="#424242" d="M186.5,-468C186.5,-468 128.5,-468 128.5,-468 122.5,-468 116.5,-462 116.5,-456 116.5,-456 116.5,-444 116.5,-444 116.5,-438 122.5,-432 128.5,-432 128.5,-432 186.5,-432 186.5,-432 192.5,-432 198.5,-438 198.5,-444 198.5,-444 198.5,-456 198.5,-456 198.5,-462 192.5,-468 186.5,-468"/>
<text xml:space="preserve" text-anchor="middle" x="157.5" y="-446.88" font-family="Courier,monospace" font-size="10.00">Struct Pair</text>
</g>
<!-- n1&#45;&gt;n2 -->
<g id="edge3" class="edge">
<title>n1&#45;&gt;n2</title>
<path fill="none" stroke="#757575" d="M443.27,-514.91C390.57,-503.12 273.94,-477.04 207.11,-462.09"/>
<polygon fill="#757575" stroke="#757575" points="207.66,-459.71 200.29,-460.57 206.59,-464.49 207.66,-459.71"/>
</g>
<!-- n5 -->
<g id="node6" class="node">
<title>n5</title>
<path fill="#f5f5f5" stroke="#424242" d="M499.5,-468C499.5,-468 441.5,-468 441.5,-468 435.5,-468 429.5,-462 429.5,-456 429.5,-456 429.5,-444 429.5,-444 429.5,-438 435.5,-432 441.5,-432 441.5,-432 499.5,-432 499.5,-432 505.5,-432 511.5,-438 511.5,-444 511.5,-444 511.5,-456 511.5,-456 511.5,-462 505.5,-468 499.5,-468"/>
<text xml:space="preserve" text-anchor="middle" x="470.5" y="-446.88" font-family="Courier,monospace" font-size="10.00">Struct Quad</text>
</g>
<!-- n1&#45;&gt;n5 -->
<g id="edge8" class="edge">
<title>n1&#45;&gt;n5</title>
<path fill="none" stroke="#757575" d="M470.5,-503.7C470.5,-495.47 470.5,-485.48 470.5,-476.42"/>
<polygon fill="#757575" stroke="#757575" points="472.95,-476.62 470.5,-469.62 468.05,-476.62 472.95,-476.62"/>
</g>
<!-- n3 -->
<g id="node4" class="node">
<title>n3</title>
<ellipse fill="#f3e5f5" stroke="#424242" cx="46.5" cy="-378" rx="46.5" ry="18"/>
<text xml:space="preserve" text-anchor="middle" x="46.5" y="-374.88" font-family="Courier,monospace" font-size="10.00">Decl int x</text>
</g>
<!-- n2&#45;&gt;n3 -->
<g id="edge1" class="edge">
<title>n2&#45;&gt;n3</title>
<path fill="none" stroke="#757575" d="M129.78,-431.52C113.71,-421.38 93.45,-408.61 76.94,-398.2"/>
<polygon fill="#757575" stroke="#757575" points="78.63,-396.36 71.4,-394.7 76.01,-400.51 78.63,-396.36"/>
</g>
<!-- n4 -->
<g id="node5" class="node">
<title>n4</title>
<ellipse fill="#f3e5f5" stroke="#424242" cx="157.5" cy="-378" rx="46.5" ry="18"/>
<text xml:space="preserve" text-anchor="middle" x="157.5" y="-374.88" font-family="Courier,monospace" font-size="10.00">Decl int y</text>
</g>
<!-- n2&#45;&gt;n4 -->
<g id="edge2" class="edge">
<title>n2&#45;&gt;n4</title>
<path fill="none" stroke="#757575" d="M157.5,-431.7C157.5,-423.47 157.5,-413.48 157.5,-404.42"/>
<polygon fill="#757575" stroke="#757575" points="159.95,-404.62 157.5,-397.62 155.05,-404.62 159.95,-404.62"/>
</g>
<!-- n6 -->
<g id="node7" class="node">
<title>n6</title>
<ellipse fill="#f3e5f5" stroke="#424242" cx="283.5" cy="-378" rx="61.19" ry="18"/>
<text xml:space="preserve" text-anchor="middle" x="283.5" y="-374.88" font-family="Courier,monospace" font-size="10.00">Decl int width</text>
</g>
<!-- n5&#45;&gt;n6 -->
<g id="edge4" class="edge">
<title>n5&#45;&gt;n6</title>
<path fill="none" stroke="#757575" d="M429.46,-433.64C399.43,-422.4 358.73,-407.16 327.93,-395.63"/>
<polygon fill="#757575" stroke="#757575" points="329.16,-393.47 321.74,-393.31 327.44,-398.06 329.16,-393.47"/>
</g>
<!-- n7 -->
<g id="node8" class="node">
<title>n7</title>
<ellipse fill="#f3e5f5" stroke="#424242" cx="427.5" cy="-378" rx="64.86" ry="18"/>
<text xml:space="preserve" text-anchor="middle" x="427.5" y="-374.88" font-family="Courier,monospace" font-size="10.00">Decl int height</text>
</g>
<!-- n5&#45;&gt;n7 -->
<g id="edge5" class="edge">
<title>n5&#45;&gt;n7</title>
<path fill="none" stroke="#757575" d="M459.87,-431.7C454.61,-423.14 448.18,-412.66 442.43,-403.3"/>
<polygon fill="#757575" stroke="#757575" points="444.55,-402.08 438.8,-397.39 440.38,-404.64 444.55,-402.08"/>
</g>
<!-- n8 -->
<g id="node9" class="node">
<title>n8</title>
<ellipse fill="#f3e5f5" stroke="#424242" cx="586.5" cy="-378" rx="75.87" ry="18"/>
<text xml:space="preserve" text-anchor="middle" x="586.5" y="-374.88" font-family="Courier,monospace" font-size="10.00">Decl bool isSquare</text>
</g>
<!-- n5&#45;&gt;n8 -->
<g id="edge6" class="edge">
<title>n5&#45;&gt;n8</title>
<path fill="none" stroke="#757575" d="M499.47,-431.52C515.56,-421.81 535.67,-409.68 552.5,-399.52"/>
<polygon fill="#757575" stroke="#757575" points="553.47,-401.8 558.19,-396.08 550.93,-397.6 553.47,-401.8"/>
</g>
<!-- n9 -->
<g id="node10" class="node">
<title>n9</title>
<ellipse fill="#f3e5f5" stroke="#424242" cx="774.5" cy="-378" rx="94.23" ry="18"/>
<text xml:space="preserve" text-anchor="middle" x="774.5" y="-374.88" font-family="Courier,monospace" font-size="10.00">Decl struct Pair coords</text>
</g>
<!-- n5&#45;&gt;n9 -->
<g id="edge7" class="edge">
<title>n5&#45;&gt;n9</title>
<path fill="none" stroke="#757575" d="M511.82,-439.49C562.13,-427.9 647.78,-408.18 707.56,-394.42"/>
<polygon fill="#757575" stroke="#757575" points="708.07,-396.81 714.34,-392.85 706.97,-392.04 708.07,-396.81"/>
</g>
<!-- n11 -->
<g id="node12" class="node">
<title>n11</title>
<ellipse fill="#f3e5f5" stroke="#424242" cx="662.5" cy="-450" rx="46.5" ry="18"/>
<text xml:space="preserve" text-anchor="middle" x="662.5" y="-446.88" font-family="Courier,monospace" font-size="10.00">Decl int g</text>
</g>
<!-- n10&#45;&gt;n11 -->
<g id="edge10" class="edge">
<title>n10&#45;&gt;n11</title>
<path fill="none" stroke="#757575" d="M679.06,-503.7C676.45,-495.39 673.27,-485.28 670.4,-476.14"/>
<polygon fill="#757575" stroke="#757575" points="672.77,-475.49 668.33,-469.55 668.09,-476.96 672.77,-475.49"/>
</g>
<!-- n12 -->
<g id="node13" class="node">
<title>n12</title>
<ellipse fill="#f3e5f5" stroke="#424242" cx="777.5" cy="-450" rx="50.17" ry="18"/>
<text xml:space="preserve" text-anchor="middle" x="777.5" y="-446.88" font-family="Courier,monospace" font-size="10.00">Decl bool h</text>
</g>
<!-- n10&#45;&gt;n12 -->
<g id="edge11" class="edge">
<title>n10&#45;&gt;n12</title>
<path fill="none" stroke="#757575" d="M707.49,-503.7C720.32,-494.04 736.38,-481.95 749.88,-471.79"/>
<polygon fill="#757575" stroke="#757575" points="751.35,-473.75 755.47,-467.58 748.41,-469.83 751.35,-473.75"/>
</g>
<!-- n14 -->
<g id="node15" class="node">
<title>n14</title>
<path fill="#f5f5f5" stroke="#424242" d="M1002.5,-468C1002.5,-468 968.5,-468 968.5,-468 962.5,-468 956.5,-462 956.5,-456 956.5,-456 956.5,-444 956.5,-444 956.5,-438 962.5,-432 968.5,-432 968.5,-432 1002.5,-432 1002.5,-432 1008.5,-432 1014.5,-438 1014.5,-444 1014.5,-444 1014.5,-456 1014.5,-456 1014.5,-462 1008.5,-468 1002.5,-468"/>
<text xml:space="preserve" text-anchor="middle" x="985.5" y="-446.88" font-family="Courier,monospace" font-size="10.00">funmain</text>
</g>
<!-- n13&#45;&gt;n14 -->
<g id="edge95" class="edge">
<title>n13&#45;&gt;n14</title>
<path fill="none" stroke="#757575" d="M968.94,-503.7C971.55,-495.39 974.73,-485.28 977.6,-476.14"/>
<polygon fill="#757575" stroke="#757575" points="979.91,-476.96 979.67,-469.55 975.24,-475.49 979.91,-476.96"/>
</g>
<!-- n15 -->
<g id="node16" class="node">
<title>n15</title>
<path fill="#f5f5f5" stroke="#424242" d="M928.5,-396C928.5,-396 898.5,-396 898.5,-396 892.5,-396 886.5,-390 886.5,-384 886.5,-384 886.5,-372 886.5,-372 886.5,-366 892.5,-360 898.5,-360 898.5,-360 928.5,-360 928.5,-360 934.5,-360 940.5,-366 940.5,-372 940.5,-372 940.5,-384 940.5,-384 940.5,-390 934.5,-396 928.5,-396"/>
<text xml:space="preserve" text-anchor="middle" x="913.5" y="-374.88" font-family="Courier,monospace" font-size="10.00">Params</text>
</g>
<!-- n14&#45;&gt;n15 -->
<g id="edge13" class="edge">
<title>n14&#45;&gt;n15</title>
<path fill="none" stroke="#757575" d="M967.7,-431.7C958.53,-422.78 947.22,-411.78 937.3,-402.14"/>
<polygon fill="#757575" stroke="#757575" points="939.16,-400.52 932.43,-397.4 935.74,-404.04 939.16,-400.52"/>
</g>
<!-- n16 -->
<g id="node17" class="node">
<title>n16</title>
<path fill="#f5f5f5" stroke="#424242" d="M1000.5,-396C1000.5,-396 970.5,-396 970.5,-396 964.5,-396 958.5,-390 958.5,-384 958.5,-384 958.5,-372 958.5,-372 958.5,-366 964.5,-360 970.5,-360 970.5,-360 1000.5,-360 1000.5,-360 1006.5,-360 1012.5,-366 1012.5,-372 1012.5,-372 1012.5,-384 1012.5,-384 1012.5,-390 1006.5,-396 1000.5,-396"/>
<text xml:space="preserve" text-anchor="middle" x="985.5" y="-374.88" font-family="Courier,monospace" font-size="10.00">Locals</text>
</g>
<!-- n14&#45;&gt;n16 -->
<g id="edge20" class="edge">
<title>n14&#45;&gt;n16</title>
<path fill="none" stroke="#757575" d="M985.5,-431.7C985.5,-423.47 985.5,-413.48 985.5,-404.42"/>
<polygon fill="#757575" stroke="#757575" points="987.95,-404.62 985.5,-397.62 983.05,-404.62 987.95,-404.62"/>
</g>
<!-- n23 -->
<g id="node24" class="node">
<title>n23</title>
<path fill="#f5f5f5" stroke="#424242" d="M1239.5,-396C1239.5,-396 1181.5,-396 1181.5,-396 1175.5,-396 1169.5,-390 1169.5,-384 1169.5,-384 1169.5,-372 1169.5,-372 1169.5,-366 1175.5,-360 1181.5,-360 1181.5,-360 1239.5,-360 1239.5,-360 1245.5,-360 1251.5,-366 1251.5,-372 1251.5,-372 1251.5,-384 1251.5,-384 1251.5,-390 1245.5,-396 1239.5,-396"/>
<text xml:space="preserve" text-anchor="middle" x="1210.5" y="-374.88" font-family="Courier,monospace" font-size="10.00">Return Type</text>
</g>
<!-- n14&#45;&gt;n23 -->
<g id="edge22" class="edge">
<title>n14&#45;&gt;n23</title>
<path fill="none" stroke="#757575" d="M1014.92,-439.85C1052.03,-428.3 1116.42,-408.27 1161.13,-394.36"/>
<polygon fill="#757575" stroke="#757575" points="1161.84,-396.71 1167.79,-392.29 1160.38,-392.03 1161.84,-396.71"/>
</g>
<!-- n25 -->
<g id="node26" class="node">
<title>n25</title>
<path fill="#f5f5f5" stroke="#424242" d="M2491.5,-396C2491.5,-396 2461.5,-396 2461.5,-396 2455.5,-396 2449.5,-390 2449.5,-384 2449.5,-384 2449.5,-372 2449.5,-372 2449.5,-366 2455.5,-360 2461.5,-360 2461.5,-360 2491.5,-360 2491.5,-360 2497.5,-360 2503.5,-366 2503.5,-372 2503.5,-372 2503.5,-384 2503.5,-384 2503.5,-390 2497.5,-396 2491.5,-396"/>
<text xml:space="preserve" text-anchor="middle" x="2476.5" y="-374.88" font-family="Courier,monospace" font-size="10.00">Body</text>
</g>
<!-- n14&#45;&gt;n25 -->
<g id="edge94" class="edge">
<title>n14&#45;&gt;n25</title>
<path fill="none" stroke="#757575" d="M1014.95,-447.62C1203.01,-438.79 2234.6,-390.36 2440.67,-380.68"/>
<polygon fill="#757575" stroke="#757575" points="2440.65,-383.14 2447.52,-380.36 2440.42,-378.24 2440.65,-383.14"/>
</g>
<!-- n17 -->
<g id="node18" class="node">
<title>n17</title>
<ellipse fill="#f3e5f5" stroke="#424242" cx="568.5" cy="-306" rx="46.5" ry="18"/>
<text xml:space="preserve" text-anchor="middle" x="568.5" y="-302.88" font-family="Courier,monospace" font-size="10.00">Decl int x</text>
</g>
<!-- n16&#45;&gt;n17 -->
<g id="edge14" class="edge">
<title>n16&#45;&gt;n17</title>
<path fill="none" stroke="#757575" d="M958.35,-363.04C955.41,-361.87 952.43,-360.83 949.5,-360 809.66,-320.43 766.86,-353.23 624.5,-324 620.09,-323.09 615.52,-321.99 610.98,-320.79"/>
<polygon fill="#757575" stroke="#757575" points="611.76,-318.46 604.36,-318.94 610.44,-323.18 611.76,-318.46"/>
</g>
<!-- n18 -->
<g id="node19" class="node">
<title>n18</title>
<ellipse fill="#f3e5f5" stroke="#424242" cx="683.5" cy="-306" rx="50.17" ry="18"/>
<text xml:space="preserve" text-anchor="middle" x="683.5" y="-302.88" font-family="Courier,monospace" font-size="10.00">Decl int ex</text>
</g>
<!-- n16&#45;&gt;n18 -->
<g id="edge15" class="edge">
<title>n16&#45;&gt;n18</title>
<path fill="none" stroke="#757575" d="M958.29,-363.22C955.37,-362.02 952.4,-360.92 949.5,-360 860.48,-331.81 833.5,-344.96 742.5,-324 738.09,-322.98 733.51,-321.84 728.95,-320.63"/>
<polygon fill="#757575" stroke="#757575" points="729.65,-318.28 722.26,-318.8 728.37,-323.01 729.65,-318.28"/>
</g>
<!-- n19 -->
<g id="node20" class="node">
<title>n19</title>
<ellipse fill="#f3e5f5" stroke="#424242" cx="798.5" cy="-306" rx="46.5" ry="18"/>
<text xml:space="preserve" text-anchor="middle" x="798.5" y="-302.88" font-family="Courier,monospace" font-size="10.00">Decl int r</text>
</g>
<!-- n16&#45;&gt;n19 -->
<g id="edge16" class="edge">
<title>n16&#45;&gt;n19</title>
<path fill="none" stroke="#757575" d="M958.12,-363.71C955.23,-362.41 952.32,-361.15 949.5,-360 913.64,-345.28 872.01,-330.86 841.56,-320.79"/>
<polygon fill="#757575" stroke="#757575" points="842.52,-318.53 835.11,-318.67 840.99,-323.18 842.52,-318.53"/>
</g>
<!-- n20 -->
<g id="node21" class="node">
<title>n20</title>
<ellipse fill="#f3e5f5" stroke="#424242" cx="913.5" cy="-306" rx="50.17" ry="18"/>
<text xml:space="preserve" text-anchor="middle" x="913.5" y="-302.88" font-family="Courier,monospace" font-size="10.00">Decl bool b</text>
</g>
<!-- n16&#45;&gt;n20 -->
<g id="edge17" class="edge">
<title>n16&#45;&gt;n20</title>
<path fill="none" stroke="#757575" d="M967.7,-359.7C958.19,-350.44 946.36,-338.95 936.19,-329.06"/>
<polygon fill="#757575" stroke="#757575" points="937.92,-327.32 931.19,-324.2 934.5,-330.84 937.92,-327.32"/>
</g>
<!-- n21 -->
<g id="node22" class="node">
<title>n21</title>
<ellipse fill="#f3e5f5" stroke="#424242" cx="1057.5" cy="-306" rx="75.87" ry="18"/>
<text xml:space="preserve" text-anchor="middle" x="1057.5" y="-302.88" font-family="Courier,monospace" font-size="10.00">Decl struct Pair p</text>
</g>
<!-- n16&#45;&gt;n21 -->
<g id="edge18" class="edge">
<title>n16&#45;&gt;n21</title>
<path fill="none" stroke="#757575" d="M1003.3,-359.7C1012.61,-350.64 1024.13,-339.45 1034.15,-329.71"/>
<polygon fill="#757575" stroke="#757575" points="1035.76,-331.55 1039.07,-324.92 1032.35,-328.04 1035.76,-331.55"/>
</g>
<!-- n22 -->
<g id="node23" class="node">
<title>n22</title>
<ellipse fill="#f3e5f5" stroke="#424242" cx="1227.5" cy="-306" rx="75.87" ry="18"/>
<text xml:space="preserve" text-anchor="middle" x="1227.5" y="-302.88" font-family="Courier,monospace" font-size="10.00">Decl struct Quad q</text>
</g>
<!-- n16&#45;&gt;n22 -->
<g id="edge19" class="edge">
<title>n16&#45;&gt;n22</title>
<path fill="none" stroke="#757575" d="M1012.79,-369.11C1051.43,-357.93 1122.93,-337.25 1172.75,-322.84"/>
<polygon fill="#757575" stroke="#757575" points="1173.36,-325.21 1179.41,-320.91 1172,-320.5 1173.36,-325.21"/>
</g>
<!-- n24 -->
<g id="node25" class="node">
<title>n24</title>
<ellipse fill="#fff8e1" stroke="#424242" cx="1348.5" cy="-306" rx="27" ry="18"/>
<text xml:space="preserve" text-anchor="middle" x="1348.5" y="-302.88" font-family="Courier,monospace" font-size="10.00">int</text>
</g>
<!-- n23&#45;&gt;n24 -->
<g id="edge21" class="edge">
<title>n23&#45;&gt;n24</title>
<path fill="none" stroke="#757575" d="M1244.97,-359.52C1268.11,-347.78 1298.22,-332.5 1320.01,-321.45"/>
<polygon fill="#757575" stroke="#757575" points="1320.85,-323.77 1325.99,-318.42 1318.64,-319.4 1320.85,-323.77"/>
</g>
<!-- n26 -->
<g id="node27" class="node">
<title>n26</title>
<path fill="#f5f5f5" stroke="#424242" d="M1435.5,-324C1435.5,-324 1405.5,-324 1405.5,-324 1399.5,-324 1393.5,-318 1393.5,-312 1393.5,-312 1393.5,-300 1393.5,-300 1393.5,-294 1399.5,-288 1405.5,-288 1405.5,-288 1435.5,-288 1435.5,-288 1441.5,-288 1447.5,-294 1447.5,-300 1447.5,-300 1447.5,-312 1447.5,-312 1447.5,-318 1441.5,-324 1435.5,-324"/>
<text xml:space="preserve" text-anchor="middle" x="1420.5" y="-302.88" font-family="Courier,monospace" font-size="10.00">Assign</text>
</g>
<!-- n25&#45;&gt;n26 -->
<g id="edge28" class="edge">
<title>n25&#45;&gt;n26</title>
<path fill="none" stroke="#757575" d="M2449.17,-376.77C2334.56,-375.56 1881.56,-368.06 1512.5,-324 1493.65,-321.75 1472.84,-318.01 1455.78,-314.61"/>
<polygon fill="#757575" stroke="#757575" points="1456.57,-312.27 1449.22,-313.28 1455.59,-317.07 1456.57,-312.27"/>
</g>
<!-- n32 -->
<g id="node33" class="node">
<title>n32</title>
<path fill="#f5f5f5" stroke="#424242" d="M1563.5,-324C1563.5,-324 1533.5,-324 1533.5,-324 1527.5,-324 1521.5,-318 1521.5,-312 1521.5,-312 1521.5,-300 1521.5,-300 1521.5,-294 1527.5,-288 1533.5,-288 1533.5,-288 1563.5,-288 1563.5,-288 1569.5,-288 1575.5,-294 1575.5,-300 1575.5,-300 1575.5,-312 1575.5,-312 1575.5,-318 1569.5,-324 1563.5,-324"/>
<text xml:space="preserve" text-anchor="middle" x="1548.5" y="-302.88" font-family="Courier,monospace" font-size="10.00">Assign</text>
</g>
<!-- n25&#45;&gt;n32 -->
<g id="edge34" class="edge">
<title>n25&#45;&gt;n32</title>
<path fill="none" stroke="#757575" d="M2449.31,-375.16C2353.24,-368.61 2020.75,-345.73 1746.5,-324 1689.51,-319.48 1623.33,-313.69 1583.75,-310.17"/>
<polygon fill="#757575" stroke="#757575" points="1584.41,-307.77 1577.22,-309.59 1583.98,-312.65 1584.41,-307.77"/>
</g>
<!-- n38 -->
<g id="node39" class="node">
<title>n38</title>
<path fill="#f5f5f5" stroke="#424242" d="M1797.5,-324C1797.5,-324 1767.5,-324 1767.5,-324 1761.5,-324 1755.5,-318 1755.5,-312 1755.5,-312 1755.5,-300 1755.5,-300 1755.5,-294 1761.5,-288 1767.5,-288 1767.5,-288 1797.5,-288 1797.5,-288 1803.5,-288 1809.5,-294 1809.5,-300 1809.5,-300 1809.5,-312 1809.5,-312 1809.5,-318 1803.5,-324 1797.5,-324"/>
<text xml:space="preserve" text-anchor="middle" x="1782.5" y="-302.88" font-family="Courier,monospace" font-size="10.00">Assign</text>
</g>
<!-- n25&#45;&gt;n38 -->
<g id="edge40" class="edge">
<title>n25&#45;&gt;n38</title>
<path fill="none" stroke="#757575" d="M2449.3,-374.26C2341,-363.33 1940.52,-322.94 1818.21,-310.6"/>
<polygon fill="#757575" stroke="#757575" points="1818.61,-308.18 1811.4,-309.91 1818.12,-313.06 1818.61,-308.18"/>
</g>
<!-- n44 -->
<g id="node45" class="node">
<title>n44</title>
<path fill="#f5f5f5" stroke="#424242" d="M2031.5,-324C2031.5,-324 2001.5,-324 2001.5,-324 1995.5,-324 1989.5,-318 1989.5,-312 1989.5,-312 1989.5,-300 1989.5,-300 1989.5,-294 1995.5,-288 2001.5,-288 2001.5,-288 2031.5,-288 2031.5,-288 2037.5,-288 2043.5,-294 2043.5,-300 2043.5,-300 2043.5,-312 2043.5,-312 2043.5,-318 2037.5,-324 2031.5,-324"/>
<text xml:space="preserve" text-anchor="middle" x="2016.5" y="-302.88" font-family="Courier,monospace" font-size="10.00">Assign</text>
</g>
<!-- n25&#45;&gt;n44 -->
<g id="edge46" class="edge">
<title>n25&#45;&gt;n44</title>
<path fill="none" stroke="#757575" d="M2449.1,-372.83C2369.93,-360.78 2140.81,-325.92 2052.14,-312.42"/>
<polygon fill="#757575" stroke="#757575" points="2052.54,-310.01 2045.25,-311.38 2051.8,-314.85 2052.54,-310.01"/>
</g>
<!-- n50 -->
<g id="node51" class="node">
<title>n50</title>
<path fill="#f5f5f5" stroke="#424242" d="M2295.5,-324C2295.5,-324 2265.5,-324 2265.5,-324 2259.5,-324 2253.5,-318 2253.5,-312 2253.5,-312 2253.5,-300 2253.5,-300 2253.5,-294 2259.5,-288 2265.5,-288 2265.5,-288 2295.5,-288 2295.5,-288 2301.5,-288 2307.5,-294 2307.5,-300 2307.5,-300 2307.5,-312 2307.5,-312 2307.5,-318 2301.5,-324 2295.5,-324"/>
<text xml:space="preserve" text-anchor="middle" x="2280.5" y="-302.88" font-family="Courier,monospace" font-size="10.00">Assign</text>
</g>
<!-- n25&#45;&gt;n50 -->
<g id="edge52" class="edge">
<title>n25&#45;&gt;n50</title>
<path fill="none" stroke="#757575" d="M2449.25,-367.27C2414.39,-354.82 2353.95,-333.23 2315.66,-319.56"/>
<polygon fill="#757575" stroke="#757575" points="2316.68,-317.32 2309.26,-317.27 2315.03,-321.93 2316.68,-317.32"/>
</g>
<!-- n56 -->
<g id="node57" class="node">
<title>n56</title>
<path fill="#f5f5f5" stroke="#424242" d="M2491.5,-324C2491.5,-324 2461.5,-324 2461.5,-324 2455.5,-324 2449.5,-318 2449.5,-312 2449.5,-312 2449.5,-300 2449.5,-300 2449.5,-294 2455.5,-288 2461.5,-288 2461.5,-288 2491.5,-288 2491.5,-288 2497.5,-288 2503.5,-294 2503.5,-300 2503.5,-300 2503.5,-312 2503.5,-312 2503.5,-318 2497.5,-324 2491.5,-324"/>
<text xml:space="preserve" text-anchor="middle" x="2476.5" y="-302.88" font-family="Courier,monospace" font-size="10.00">Assign</text>
</g>
<!-- n25&#45;&gt;n56 -->
<g id="edge58" class="edge">
<title>n25&#45;&gt;n56</title>
<path fill="none" stroke="#757575" d="M2476.5,-359.7C2476.5,-351.47 2476.5,-341.48 2476.5,-332.42"/>
<polygon fill="#757575" stroke="#757575" points="2478.95,-332.62 2476.5,-325.62 2474.05,-332.62 2478.95,-332.62"/>
</g>
<!-- n62 -->
<g id="node63" class="node">
<title>n62</title>
<path fill="#f5f5f5" stroke="#424242" d="M2710.5,-324C2710.5,-324 2680.5,-324 2680.5,-324 2674.5,-324 2668.5,-318 2668.5,-312 2668.5,-312 2668.5,-300 2668.5,-300 2668.5,-294 2674.5,-288 2680.5,-288 2680.5,-288 2710.5,-288 2710.5,-288 2716.5,-288 2722.5,-294 2722.5,-300 2722.5,-300 2722.5,-312 2722.5,-312 2722.5,-318 2716.5,-324 2710.5,-324"/>
<text xml:space="preserve" text-anchor="middle" x="2695.5" y="-302.88" font-family="Courier,monospace" font-size="10.00">Assign</text>
</g>
<!-- n25&#45;&gt;n62 -->
<g id="edge64" class="edge">
<title>n25&#45;&gt;n62</title>
<path fill="none" stroke="#757575" d="M2503.8,-368.28C2543.33,-355.64 2616.55,-332.24 2660.16,-318.3"/>
<polygon fill="#757575" stroke="#757575" points="2660.85,-320.65 2666.77,-316.18 2659.35,-315.98 2660.85,-320.65"/>
</g>
<!-- n68 -->
<g id="node69" class="node">
<title>n68</title>
<path fill="#f5f5f5" stroke="#424242" d="M2991.5,-324C2991.5,-324 2961.5,-324 2961.5,-324 2955.5,-324 2949.5,-318 2949.5,-312 2949.5,-312 2949.5,-300 2949.5,-300 2949.5,-294 2955.5,-288 2961.5,-288 2961.5,-288 2991.5,-288 2991.5,-288 2997.5,-288 3003.5,-294 3003.5,-300 3003.5,-300 3003.5,-312 3003.5,-312 3003.5,-318 2997.5,-324 2991.5,-324"/>
<text xml:space="preserve" text-anchor="middle" x="2976.5" y="-302.88" font-family="Courier,monospace" font-size="10.00">Assign</text>
</g>
<!-- n25&#45;&gt;n68 -->
<g id="edge70" class="edge">
<title>n25&#45;&gt;n68</title>
<path fill="none" stroke="#757575" d="M2503.74,-373.19C2588.22,-361.36 2845.83,-325.29 2940.83,-311.99"/>
<polygon fill="#757575" stroke="#757575" points="2941.15,-314.42 2947.74,-311.03 2940.47,-309.57 2941.15,-314.42"/>
</g>
<!-- n74 -->
<g id="node75" class="node">
<title>n74</title>
<path fill="#f5f5f5" stroke="#424242" d="M3222.5,-324C3222.5,-324 3192.5,-324 3192.5,-324 3186.5,-324 3180.5,-318 3180.5,-312 3180.5,-312 3180.5,-300 3180.5,-300 3180.5,-294 3186.5,-288 3192.5,-288 3192.5,-288 3222.5,-288 3222.5,-288 3228.5,-288 3234.5,-294 3234.5,-300 3234.5,-300 3234.5,-312 3234.5,-312 3234.5,-318 3228.5,-324 3222.5,-324"/>
<text xml:space="preserve" text-anchor="middle" x="3207.5" y="-302.88" font-family="Courier,monospace" font-size="10.00">Assign</text>
</g>
<!-- n25&#45;&gt;n74 -->
<g id="edge77" class="edge">
<title>n25&#45;&gt;n74</title>
<path fill="none" stroke="#757575" d="M2503.82,-374.38C2616.45,-363.6 3044.72,-322.59 3171.77,-310.42"/>
<polygon fill="#757575" stroke="#757575" points="3171.8,-312.88 3178.54,-309.77 3171.33,-308 3171.8,-312.88"/>
</g>
<!-- n81 -->
<g id="node82" class="node">
<title>n81</title>
<path fill="#f5f5f5" stroke="#424242" d="M3522.5,-324C3522.5,-324 3492.5,-324 3492.5,-324 3486.5,-324 3480.5,-318 3480.5,-312 3480.5,-312 3480.5,-300 3480.5,-300 3480.5,-294 3486.5,-288 3492.5,-288 3492.5,-288 3522.5,-288 3522.5,-288 3528.5,-288 3534.5,-294 3534.5,-300 3534.5,-300 3534.5,-312 3534.5,-312 3534.5,-318 3528.5,-324 3522.5,-324"/>
<text xml:space="preserve" text-anchor="middle" x="3507.5" y="-302.88" font-family="Courier,monospace" font-size="10.00">Assign</text>
</g>
<!-- n25&#45;&gt;n81 -->
<g id="edge84" class="edge">
<title>n25&#45;&gt;n81</title>
<path fill="none" stroke="#757575" d="M2503.81,-375.15C2647.02,-365.42 3310.84,-320.35 3472.12,-309.4"/>
<polygon fill="#757575" stroke="#757575" points="3471.96,-311.87 3478.78,-308.95 3471.63,-306.98 3471.96,-311.87"/>
</g>
<!-- n88 -->
<g id="node89" class="node">
<title>n88</title>
<path fill="#f5f5f5" stroke="#424242" d="M3711.5,-324C3711.5,-324 3681.5,-324 3681.5,-324 3675.5,-324 3669.5,-318 3669.5,-312 3669.5,-312 3669.5,-300 3669.5,-300 3669.5,-294 3675.5,-288 3681.5,-288 3681.5,-288 3711.5,-288 3711.5,-288 3717.5,-288 3723.5,-294 3723.5,-300 3723.5,-300 3723.5,-312 3723.5,-312 3723.5,-318 3717.5,-324 3711.5,-324"/>
<text xml:space="preserve" text-anchor="middle" x="3696.5" y="-302.88" font-family="Courier,monospace" font-size="10.00">Assign</text>
</g>
<!-- n25&#45;&gt;n88 -->
<g id="edge91" class="edge">
<title>n25&#45;&gt;n88</title>
<path fill="none" stroke="#757575" d="M2503.75,-376.26C2625.31,-372.82 3130.3,-357.19 3543.5,-324 3583.8,-320.76 3629.9,-315.42 3660.87,-311.58"/>
<polygon fill="#757575" stroke="#757575" points="3661.04,-314.03 3667.69,-310.73 3660.44,-309.17 3661.04,-314.03"/>
</g>
<!-- n95 -->
<g id="node96" class="node">
<title>n95</title>
<path fill="#f5f5f5" stroke="#424242" d="M3819.5,-324C3819.5,-324 3789.5,-324 3789.5,-324 3783.5,-324 3777.5,-318 3777.5,-312 3777.5,-312 3777.5,-300 3777.5,-300 3777.5,-294 3783.5,-288 3789.5,-288 3789.5,-288 3819.5,-288 3819.5,-288 3825.5,-288 3831.5,-294 3831.5,-300 3831.5,-300 3831.5,-312 3831.5,-312 3831.5,-318 3825.5,-324 3819.5,-324"/>
<text xml:space="preserve" text-anchor="middle" x="3804.5" y="-302.88" font-family="Courier,monospace" font-size="10.00">Return</text>
</g>
<!-- n25&#45;&gt;n95 -->
<g id="edge93" class="edge">
<title>n25&#45;&gt;n95</title>
<path fill="none" stroke="#757575" d="M2503.99,-376.55C2664.62,-373.81 3483.33,-358.36 3732.5,-324 3744.48,-322.35 3757.39,-319.61 3768.92,-316.81"/>
<polygon fill="#757575" stroke="#757575" points="3769.38,-319.22 3775.57,-315.15 3768.18,-314.47 3769.38,-319.22"/>
</g>
<!-- n27 -->
<g id="node28" class="node">
<title>n27</title>
<path fill="#f5f5f5" stroke="#424242" d="M1312.5,-252C1312.5,-252 1282.5,-252 1282.5,-252 1276.5,-252 1270.5,-246 1270.5,-240 1270.5,-240 1270.5,-228 1270.5,-228 1270.5,-222 1276.5,-216 1282.5,-216 1282.5,-216 1312.5,-216 1312.5,-216 1318.5,-216 1324.5,-222 1324.5,-228 1324.5,-228 1324.5,-240 1324.5,-240 1324.5,-246 1318.5,-252 1312.5,-252"/>
<text xml:space="preserve" text-anchor="middle" x="1297.5" y="-230.88" font-family="Courier,monospace" font-size="10.00">Target</text>
</g>
<!-- n26&#45;&gt;n27 -->
<g id="edge24" class="edge">
<title>n26&#45;&gt;n27</title>
<path fill="none" stroke="#757575" d="M1393.2,-289.46C1375.13,-279.18 1351.28,-265.6 1331.91,-254.58"/>
<polygon fill="#757575" stroke="#757575" points="1333.33,-252.57 1326.04,-251.24 1330.91,-256.83 1333.33,-252.57"/>
</g>
<!-- n29 -->
<g id="node30" class="node">
<title>n29</title>
<path fill="#f5f5f5" stroke="#424242" d="M1394.5,-252C1394.5,-252 1364.5,-252 1364.5,-252 1358.5,-252 1352.5,-246 1352.5,-240 1352.5,-240 1352.5,-228 1352.5,-228 1352.5,-222 1358.5,-216 1364.5,-216 1364.5,-216 1394.5,-216 1394.5,-216 1400.5,-216 1406.5,-222 1406.5,-228 1406.5,-228 1406.5,-240 1406.5,-240 1406.5,-246 1400.5,-252 1394.5,-252"/>
<text xml:space="preserve" text-anchor="middle" x="1379.5" y="-230.88" font-family="Courier,monospace" font-size="10.00">Source</text>
</g>
<!-- n26&#45;&gt;n29 -->
<g id="edge27" class="edge">
<title>n26&#45;&gt;n29</title>
<path fill="none" stroke="#757575" d="M1410.37,-287.7C1405.35,-279.14 1399.21,-268.66 1393.74,-259.3"/>
<polygon fill="#757575" stroke="#757575" points="1395.94,-258.21 1390.28,-253.41 1391.71,-260.69 1395.94,-258.21"/>
</g>
<!-- n28 -->
<g id="node29" class="node">
<title>n28</title>
<ellipse fill="#f3e5f5" stroke="#424242" cx="1272.5" cy="-162" rx="46.5" ry="18"/>
<text xml:space="preserve" text-anchor="middle" x="1272.5" y="-158.88" font-family="Courier,monospace" font-size="10.00">LValueID p</text>
</g>
<!-- n27&#45;&gt;n28 -->
<g id="edge23" class="edge">
<title>n27&#45;&gt;n28</title>
<path fill="none" stroke="#757575" d="M1291.32,-215.7C1288.32,-207.3 1284.67,-197.07 1281.38,-187.86"/>
<polygon fill="#757575" stroke="#757575" points="1283.78,-187.3 1279.12,-181.53 1279.17,-188.95 1283.78,-187.3"/>
</g>
<!-- n30 -->
<g id="node31" class="node">
<title>n30</title>
<ellipse fill="#fff8e1" stroke="#424242" cx="1364.5" cy="-162" rx="27" ry="18"/>
<text xml:space="preserve" text-anchor="middle" x="1364.5" y="-158.88" font-family="Courier,monospace" font-size="10.00">new</text>
</g>
<!-- n29&#45;&gt;n30 -->
<g id="edge26" class="edge">
<title>n29&#45;&gt;n30</title>
<path fill="none" stroke="#757575" d="M1375.79,-215.7C1374.03,-207.47 1371.89,-197.48 1369.95,-188.42"/>
<polygon fill="#757575" stroke="#757575" points="1372.35,-187.92 1368.48,-181.58 1367.56,-188.94 1372.35,-187.92"/>
</g>
<!-- n31 -->
<g id="node32" class="node">
<title>n31</title>
<ellipse fill="#e8f5e9" stroke="#424242" cx="1364.5" cy="-90" rx="35.49" ry="18"/>
<text xml:space="preserve" text-anchor="middle" x="1364.5" y="-86.88" font-family="Courier,monospace" font-size="10.00">Id Pair</text>
</g>
<!-- n30&#45;&gt;n31 -->
<g id="edge25" class="edge">
<title>n30&#45;&gt;n31</title>
<path fill="none" stroke="#757575" d="M1364.5,-143.7C1364.5,-135.47 1364.5,-125.48 1364.5,-116.42"/>
<polygon fill="#757575" stroke="#757575" points="1366.95,-116.62 1364.5,-109.62 1362.05,-116.62 1366.95,-116.62"/>
</g>
<!-- n33 -->
<g id="node34" class="node">
<title>n33</title>
<path fill="#f5f5f5" stroke="#424242" d="M1481.5,-252C1481.5,-252 1451.5,-252 1451.5,-252 1445.5,-252 1439.5,-246 1439.5,-240 1439.5,-240 1439.5,-228 1439.5,-228 1439.5,-222 1445.5,-216 1451.5,-216 1451.5,-216 1481.5,-216 1481.5,-216 1487.5,-216 1493.5,-222 1493.5,-228 1493.5,-228 1493.5,-240 1493.5,-240 1493.5,-246 1487.5,-252 1481.5,-252"/>
<text xml:space="preserve" text-anchor="middle" x="1466.5" y="-230.88" font-family="Courier,monospace" font-size="10.00">Target</text>
</g>
<!-- n32&#45;&gt;n33 -->
<g id="edge30" class="edge">
<title>n32&#45;&gt;n33</title>
<path fill="none" stroke="#757575" d="M1528.23,-287.7C1517.69,-278.69 1504.66,-267.57 1493.29,-257.87"/>
<polygon fill="#757575" stroke="#757575" points="1494.89,-256.01 1487.97,-253.33 1491.71,-259.74 1494.89,-256.01"/>
</g>
<!-- n35 -->
<g id="node36" class="node">
<title>n35</title>
<path fill="#f5f5f5" stroke="#424242" d="M1563.5,-252C1563.5,-252 1533.5,-252 1533.5,-252 1527.5,-252 1521.5,-246 1521.5,-240 1521.5,-240 1521.5,-228 1521.5,-228 1521.5,-222 1527.5,-216 1533.5,-216 1533.5,-216 1563.5,-216 1563.5,-216 1569.5,-216 1575.5,-222 1575.5,-228 1575.5,-228 1575.5,-240 1575.5,-240 1575.5,-246 1569.5,-252 1563.5,-252"/>
<text xml:space="preserve" text-anchor="middle" x="1548.5" y="-230.88" font-family="Courier,monospace" font-size="10.00">Source</text>
</g>
<!-- n32&#45;&gt;n35 -->
<g id="edge33" class="edge">
<title>n32&#45;&gt;n35</title>
<path fill="none" stroke="#757575" d="M1548.5,-287.7C1548.5,-279.47 1548.5,-269.48 1548.5,-260.42"/>
<polygon fill="#757575" stroke="#757575" points="1550.95,-260.62 1548.5,-253.62 1546.05,-260.62 1550.95,-260.62"/>
</g>
<!-- n34 -->
<g id="node35" class="node">
<title>n34</title>
<ellipse fill="#f3e5f5" stroke="#424242" cx="1456.5" cy="-162" rx="46.5" ry="18"/>
<text xml:space="preserve" text-anchor="middle" x="1456.5" y="-158.88" font-family="Courier,monospace" font-size="10.00">LValueID q</text>
</g>
<!-- n33&#45;&gt;n34 -->
<g id="edge29" class="edge">
<title>n33&#45;&gt;n34</title>
<path fill="none" stroke="#757575" d="M1464.03,-215.7C1462.86,-207.47 1461.43,-197.48 1460.13,-188.42"/>
<polygon fill="#757575" stroke="#757575" points="1462.57,-188.19 1459.16,-181.6 1457.72,-188.88 1462.57,-188.19"/>
</g>
<!-- n36 -->
<g id="node37" class="node">
<title>n36</title>
<ellipse fill="#fff8e1" stroke="#424242" cx="1548.5" cy="-162" rx="27" ry="18"/>
<text xml:space="preserve" text-anchor="middle" x="1548.5" y="-158.88" font-family="Courier,monospace" font-size="10.00">new</text>
</g>
<!-- n35&#45;&gt;n36 -->
<g id="edge32" class="edge">
<title>n35&#45;&gt;n36</title>
<path fill="none" stroke="#757575" d="M1548.5,-215.7C1548.5,-207.47 1548.5,-197.48 1548.5,-188.42"/>
<polygon fill="#757575" stroke="#757575" points="1550.95,-188.62 1548.5,-181.62 1546.05,-188.62 1550.95,-188.62"/>
</g>
<!-- n37 -->
<g id="node38" class="node">
<title>n37</title>
<ellipse fill="#e8f5e9" stroke="#424242" cx="1548.5" cy="-90" rx="35.49" ry="18"/>
<text xml:space="preserve" text-anchor="middle" x="1548.5" y="-86.88" font-family="Courier,monospace" font-size="10.00">Id Quad</text>
</g>
<!-- n36&#45;&gt;n37 -->
<g id="edge31" class="edge">
<title>n36&#45;&gt;n37</title>
<path fill="none" stroke="#757575" d="M1548.5,-143.7C1548.5,-135.47 1548.5,-125.48 1548.5,-116.42"/>
<polygon fill="#757575" stroke="#757575" points="1550.95,-116.62 1548.5,-109.62 1546.05,-116.62 1550.95,-116.62"/>
</g>
<!-- n39 -->
<g id="node40" class="node">
<title>n39</title>
<path fill="#f5f5f5" stroke="#424242" d="M1703.5,-252C1703.5,-252 1673.5,-252 1673.5,-252 1667.5,-252 1661.5,-246 1661.5,-240 1661.5,-240 1661.5,-228 1661.5,-228 1661.5,-222 1667.5,-216 1673.5,-216 1673.5,-216 1703.5,-216 1703.5,-216 1709.5,-216 1715.5,-222 1715.5,-228 1715.5,-228 1715.5,-240 1715.5,-240 1715.5,-246 1709.5,-252 1703.5,-252"/>
<text xml:space="preserve" text-anchor="middle" x="1688.5" y="-230.88" font-family="Courier,monospace" font-size="10.00">Target</text>
</g>
<!-- n38&#45;&gt;n39 -->
<g id="edge37" class="edge">
<title>n38&#45;&gt;n39</title>
<path fill="none" stroke="#757575" d="M1759.27,-287.7C1746.95,-278.53 1731.68,-267.16 1718.48,-257.33"/>
<polygon fill="#757575" stroke="#757575" points="1720.09,-255.47 1713.01,-253.25 1717.16,-259.4 1720.09,-255.47"/>
</g>
<!-- n42 -->
<g id="node43" class="node">
<title>n42</title>
<path fill="#f5f5f5" stroke="#424242" d="M1797.5,-252C1797.5,-252 1767.5,-252 1767.5,-252 1761.5,-252 1755.5,-246 1755.5,-240 1755.5,-240 1755.5,-228 1755.5,-228 1755.5,-222 1761.5,-216 1767.5,-216 1767.5,-216 1797.5,-216 1797.5,-216 1803.5,-216 1809.5,-222 1809.5,-228 1809.5,-228 1809.5,-240 1809.5,-240 1809.5,-246 1803.5,-252 1797.5,-252"/>
<text xml:space="preserve" text-anchor="middle" x="1782.5" y="-230.88" font-family="Courier,monospace" font-size="10.00">Source</text>
</g>
<!-- n38&#45;&gt;n42 -->
<g id="edge39" class="edge">
<title>n38&#45;&gt;n42</title>
<path fill="none" stroke="#757575" d="M1782.5,-287.7C1782.5,-279.47 1782.5,-269.48 1782.5,-260.42"/>
<polygon fill="#757575" stroke="#757575" points="1784.95,-260.62 1782.5,-253.62 1780.05,-260.62 1784.95,-260.62"/>
</g>
<!-- n40 -->
<g id="node41" class="node">
<title>n40</title>
<ellipse fill="#ffe0b2" stroke="#424242" cx="1665.5" cy="-162" rx="72.2" ry="18"/>
<text xml:space="preserve" text-anchor="middle" x="1665.5" y="-158.88" font-family="Courier,monospace" font-size="10.00">LValueDot field=y</text>
</g>
<!-- n39&#45;&gt;n40 -->
<g id="edge36" class="edge">
<title>n39&#45;&gt;n40</title>
<path fill="none" stroke="#757575" d="M1682.82,-215.7C1680.09,-207.39 1676.76,-197.28 1673.76,-188.14"/>
<polygon fill="#757575" stroke="#757575" points="1676.11,-187.43 1671.59,-181.54 1671.45,-188.96 1676.11,-187.43"/>
</g>
<!-- n41 -->
<g id="node42" class="node">
<title>n41</title>
<ellipse fill="#f3e5f5" stroke="#424242" cx="1665.5" cy="-90" rx="46.5" ry="18"/>
<text xml:space="preserve" text-anchor="middle" x="1665.5" y="-86.88" font-family="Courier,monospace" font-size="10.00">LValueID p</text>
</g>
<!-- n40&#45;&gt;n41 -->
<g id="edge35" class="edge">
<title>n40&#45;&gt;n41</title>
<path fill="none" stroke="#757575" d="M1665.5,-143.7C1665.5,-135.47 1665.5,-125.48 1665.5,-116.42"/>
<polygon fill="#757575" stroke="#757575" points="1667.95,-116.62 1665.5,-109.62 1663.05,-116.62 1667.95,-116.62"/>
</g>
<!-- n43 -->
<g id="node44" class="node">
<title>n43</title>
<ellipse fill="#fff8e1" stroke="#424242" cx="1782.5" cy="-162" rx="27" ry="18"/>
<text xml:space="preserve" text-anchor="middle" x="1782.5" y="-158.88" font-family="Courier,monospace" font-size="10.00">10</text>
</g>
<!-- n42&#45;&gt;n43 -->
<g id="edge38" class="edge">
<title>n42&#45;&gt;n43</title>
<path fill="none" stroke="#757575" d="M1782.5,-215.7C1782.5,-207.47 1782.5,-197.48 1782.5,-188.42"/>
<polygon fill="#757575" stroke="#757575" points="1784.95,-188.62 1782.5,-181.62 1780.05,-188.62 1784.95,-188.62"/>
</g>
<!-- n45 -->
<g id="node46" class="node">
<title>n45</title>
<path fill="#f5f5f5" stroke="#424242" d="M1937.5,-252C1937.5,-252 1907.5,-252 1907.5,-252 1901.5,-252 1895.5,-246 1895.5,-240 1895.5,-240 1895.5,-228 1895.5,-228 1895.5,-222 1901.5,-216 1907.5,-216 1907.5,-216 1937.5,-216 1937.5,-216 1943.5,-216 1949.5,-222 1949.5,-228 1949.5,-228 1949.5,-240 1949.5,-240 1949.5,-246 1943.5,-252 1937.5,-252"/>
<text xml:space="preserve" text-anchor="middle" x="1922.5" y="-230.88" font-family="Courier,monospace" font-size="10.00">Target</text>
</g>
<!-- n44&#45;&gt;n45 -->
<g id="edge43" class="edge">
<title>n44&#45;&gt;n45</title>
<path fill="none" stroke="#757575" d="M1993.27,-287.7C1980.95,-278.53 1965.68,-267.16 1952.48,-257.33"/>
<polygon fill="#757575" stroke="#757575" points="1954.09,-255.47 1947.01,-253.25 1951.16,-259.4 1954.09,-255.47"/>
</g>
<!-- n48 -->
<g id="node49" class="node">
<title>n48</title>
<path fill="#f5f5f5" stroke="#424242" d="M2031.5,-252C2031.5,-252 2001.5,-252 2001.5,-252 1995.5,-252 1989.5,-246 1989.5,-240 1989.5,-240 1989.5,-228 1989.5,-228 1989.5,-222 1995.5,-216 2001.5,-216 2001.5,-216 2031.5,-216 2031.5,-216 2037.5,-216 2043.5,-222 2043.5,-228 2043.5,-228 2043.5,-240 2043.5,-240 2043.5,-246 2037.5,-252 2031.5,-252"/>
<text xml:space="preserve" text-anchor="middle" x="2016.5" y="-230.88" font-family="Courier,monospace" font-size="10.00">Source</text>
</g>
<!-- n44&#45;&gt;n48 -->
<g id="edge45" class="edge">
<title>n44&#45;&gt;n48</title>
<path fill="none" stroke="#757575" d="M2016.5,-287.7C2016.5,-279.47 2016.5,-269.48 2016.5,-260.42"/>
<polygon fill="#757575" stroke="#757575" points="2018.95,-260.62 2016.5,-253.62 2014.05,-260.62 2018.95,-260.62"/>
</g>
<!-- n46 -->
<g id="node47" class="node">
<title>n46</title>
<ellipse fill="#ffe0b2" stroke="#424242" cx="1899.5" cy="-162" rx="72.2" ry="18"/>
<text xml:space="preserve" text-anchor="middle" x="1899.5" y="-158.88" font-family="Courier,monospace" font-size="10.00">LValueDot field=x</text>
</g>
<!-- n45&#45;&gt;n46 -->
<g id="edge42" class="edge">
<title>n45&#45;&gt;n46</title>
<path fill="none" stroke="#757575" d="M1916.82,-215.7C1914.09,-207.39 1910.76,-197.28 1907.76,-188.14"/>
<polygon fill="#757575" stroke="#757575" points="1910.11,-187.43 1905.59,-181.54 1905.45,-188.96 1910.11,-187.43"/>
</g>
<!-- n47 -->
<g id="node48" class="node">
<title>n47</title>
<ellipse fill="#f3e5f5" stroke="#424242" cx="1899.5" cy="-90" rx="46.5" ry="18"/>
<text xml:space="preserve" text-anchor="middle" x="1899.5" y="-86.88" font-family="Courier,monospace" font-size="10.00">LValueID p</text>
</g>
<!-- n46&#45;&gt;n47 -->
<g id="edge41" class="edge">
<title>n46&#45;&gt;n47</title>
<path fill="none" stroke="#757575" d="M1899.5,-143.7C1899.5,-135.47 1899.5,-125.48 1899.5,-116.42"/>
<polygon fill="#757575" stroke="#757575" points="1901.95,-116.62 1899.5,-109.62 1897.05,-116.62 1901.95,-116.62"/>
</g>
<!-- n49 -->
<g id="node50" class="node">
<title>n49</title>
<ellipse fill="#fff8e1" stroke="#424242" cx="2016.5" cy="-162" rx="27" ry="18"/>
<text xml:space="preserve" text-anchor="middle" x="2016.5" y="-158.88" font-family="Courier,monospace" font-size="10.00">2</text>
</g>
<!-- n48&#45;&gt;n49 -->
<g id="edge44" class="edge">
<title>n48&#45;&gt;n49</title>
<path fill="none" stroke="#757575" d="M2016.5,-215.7C2016.5,-207.47 2016.5,-197.48 2016.5,-188.42"/>
<polygon fill="#757575" stroke="#757575" points="2018.95,-188.62 2016.5,-181.62 2014.05,-188.62 2018.95,-188.62"/>
</g>
<!-- n51 -->
<g id="node52" class="node">
<title>n51</title>
<path fill="#f5f5f5" stroke="#424242" d="M2193.5,-252C2193.5,-252 2163.5,-252 2163.5,-252 2157.5,-252 2151.5,-246 2151.5,-240 2151.5,-240 2151.5,-228 2151.5,-228 2151.5,-222 2157.5,-216 2163.5,-216 2163.5,-216 2193.5,-216 2193.5,-216 2199.5,-216 2205.5,-222 2205.5,-228 2205.5,-228 2205.5,-240 2205.5,-240 2205.5,-246 2199.5,-252 2193.5,-252"/>
<text xml:space="preserve" text-anchor="middle" x="2178.5" y="-230.88" font-family="Courier,monospace" font-size="10.00">Target</text>
</g>
<!-- n50&#45;&gt;n51 -->
<g id="edge49" class="edge">
<title>n50&#45;&gt;n51</title>
<path fill="none" stroke="#757575" d="M2255.03,-287.52C2241.54,-278.26 2224.84,-266.8 2210.49,-256.95"/>
<polygon fill="#757575" stroke="#757575" points="2212.06,-255.06 2204.9,-253.12 2209.29,-259.1 2212.06,-255.06"/>
</g>
<!-- n54 -->
<g id="node55" class="node">
<title>n54</title>
<path fill="#f5f5f5" stroke="#424242" d="M2295.5,-252C2295.5,-252 2265.5,-252 2265.5,-252 2259.5,-252 2253.5,-246 2253.5,-240 2253.5,-240 2253.5,-228 2253.5,-228 2253.5,-222 2259.5,-216 2265.5,-216 2265.5,-216 2295.5,-216 2295.5,-216 2301.5,-216 2307.5,-222 2307.5,-228 2307.5,-228 2307.5,-240 2307.5,-240 2307.5,-246 2301.5,-252 2295.5,-252"/>
<text xml:space="preserve" text-anchor="middle" x="2280.5" y="-230.88" font-family="Courier,monospace" font-size="10.00">Source</text>
</g>
<!-- n50&#45;&gt;n54 -->
<g id="edge51" class="edge">
<title>n50&#45;&gt;n54</title>
<path fill="none" stroke="#757575" d="M2280.5,-287.7C2280.5,-279.47 2280.5,-269.48 2280.5,-260.42"/>
<polygon fill="#757575" stroke="#757575" points="2282.95,-260.62 2280.5,-253.62 2278.05,-260.62 2282.95,-260.62"/>
</g>
<!-- n52 -->
<g id="node53" class="node">
<title>n52</title>
<ellipse fill="#ffe0b2" stroke="#424242" cx="2148.5" cy="-162" rx="86.88" ry="18"/>
<text xml:space="preserve" text-anchor="middle" x="2148.5" y="-158.88" font-family="Courier,monospace" font-size="10.00">LValueDot field=width</text>
</g>
<!-- n51&#45;&gt;n52 -->
<g id="edge48" class="edge">
<title>n51&#45;&gt;n52</title>
<path fill="none" stroke="#757575" d="M2171.09,-215.7C2167.49,-207.3 2163.1,-197.07 2159.16,-187.86"/>
<polygon fill="#757575" stroke="#757575" points="2161.44,-186.96 2156.43,-181.5 2156.93,-188.89 2161.44,-186.96"/>
</g>
<!-- n53 -->
<g id="node54" class="node">
<title>n53</title>
<ellipse fill="#f3e5f5" stroke="#424242" cx="2148.5" cy="-90" rx="46.5" ry="18"/>
<text xml:space="preserve" text-anchor="middle" x="2148.5" y="-86.88" font-family="Courier,monospace" font-size="10.00">LValueID q</text>
</g>
<!-- n52&#45;&gt;n53 -->
<g id="edge47" class="edge">
<title>n52&#45;&gt;n53</title>
<path fill="none" stroke="#757575" d="M2148.5,-143.7C2148.5,-135.47 2148.5,-125.48 2148.5,-116.42"/>
<polygon fill="#757575" stroke="#757575" points="2150.95,-116.62 2148.5,-109.62 2146.05,-116.62 2150.95,-116.62"/>
</g>
<!-- n55 -->
<g id="node56" class="node">
<title>n55</title>
<ellipse fill="#fff8e1" stroke="#424242" cx="2280.5" cy="-162" rx="27" ry="18"/>
<text xml:space="preserve" text-anchor="middle" x="2280.5" y="-158.88" font-family="Courier,monospace" font-size="10.00">10</text>
</g>
<!-- n54&#45;&gt;n55 -->
<g id="edge50" class="edge">
<title>n54&#45;&gt;n55</title>
<path fill="none" stroke="#757575" d="M2280.5,-215.7C2280.5,-207.47 2280.5,-197.48 2280.5,-188.42"/>
<polygon fill="#757575" stroke="#757575" points="2282.95,-188.62 2280.5,-181.62 2278.05,-188.62 2282.95,-188.62"/>
</g>
<!-- n57 -->
<g id="node58" class="node">
<title>n57</title>
<path fill="#f5f5f5" stroke="#424242" d="M2447.5,-252C2447.5,-252 2417.5,-252 2417.5,-252 2411.5,-252 2405.5,-246 2405.5,-240 2405.5,-240 2405.5,-228 2405.5,-228 2405.5,-222 2411.5,-216 2417.5,-216 2417.5,-216 2447.5,-216 2447.5,-216 2453.5,-216 2459.5,-222 2459.5,-228 2459.5,-228 2459.5,-240 2459.5,-240 2459.5,-246 2453.5,-252 2447.5,-252"/>
<text xml:space="preserve" text-anchor="middle" x="2432.5" y="-230.88" font-family="Courier,monospace" font-size="10.00">Target</text>
</g>
<!-- n56&#45;&gt;n57 -->
<g id="edge55" class="edge">
<title>n56&#45;&gt;n57</title>
<path fill="none" stroke="#757575" d="M2465.63,-287.7C2460.24,-279.14 2453.66,-268.66 2447.78,-259.3"/>
<polygon fill="#757575" stroke="#757575" points="2449.86,-258.01 2444.06,-253.39 2445.71,-260.62 2449.86,-258.01"/>
</g>
<!-- n60 -->
<g id="node61" class="node">
<title>n60</title>
<path fill="#f5f5f5" stroke="#424242" d="M2535.5,-252C2535.5,-252 2505.5,-252 2505.5,-252 2499.5,-252 2493.5,-246 2493.5,-240 2493.5,-240 2493.5,-228 2493.5,-228 2493.5,-222 2499.5,-216 2505.5,-216 2505.5,-216 2535.5,-216 2535.5,-216 2541.5,-216 2547.5,-222 2547.5,-228 2547.5,-228 2547.5,-240 2547.5,-240 2547.5,-246 2541.5,-252 2535.5,-252"/>
<text xml:space="preserve" text-anchor="middle" x="2520.5" y="-230.88" font-family="Courier,monospace" font-size="10.00">Source</text>
</g>
<!-- n56&#45;&gt;n60 -->
<g id="edge57" class="edge">
<title>n56&#45;&gt;n60</title>
<path fill="none" stroke="#757575" d="M2487.38,-287.7C2492.76,-279.14 2499.35,-268.66 2505.22,-259.3"/>
<polygon fill="#757575" stroke="#757575" points="2507.29,-260.62 2508.94,-253.39 2503.15,-258.01 2507.29,-260.62"/>
</g>
<!-- n58 -->
<g id="node59" class="node">
<title>n58</title>
<ellipse fill="#ffe0b2" stroke="#424242" cx="2416.5" cy="-162" rx="90.56" ry="18"/>
<text xml:space="preserve" text-anchor="middle" x="2416.5" y="-158.88" font-family="Courier,monospace" font-size="10.00">LValueDot field=height</text>
</g>
<!-- n57&#45;&gt;n58 -->
<g id="edge54" class="edge">
<title>n57&#45;&gt;n58</title>
<path fill="none" stroke="#757575" d="M2428.55,-215.7C2426.65,-207.39 2424.34,-197.28 2422.25,-188.14"/>
<polygon fill="#757575" stroke="#757575" points="2424.7,-187.86 2420.75,-181.58 2419.92,-188.95 2424.7,-187.86"/>
</g>
<!-- n59 -->
<g id="node60" class="node">
<title>n59</title>
<ellipse fill="#f3e5f5" stroke="#424242" cx="2416.5" cy="-90" rx="46.5" ry="18"/>
<text xml:space="preserve" text-anchor="middle" x="2416.5" y="-86.88" font-family="Courier,monospace" font-size="10.00">LValueID q</text>
</g>
<!-- n58&#45;&gt;n59 -->
<g id="edge53" class="edge">
<title>n58&#45;&gt;n59</title>
<path fill="none" stroke="#757575" d="M2416.5,-143.7C2416.5,-135.47 2416.5,-125.48 2416.5,-116.42"/>
<polygon fill="#757575" stroke="#757575" points="2418.95,-116.62 2416.5,-109.62 2414.05,-116.62 2418.95,-116.62"/>
</g>
<!-- n61 -->
<g id="node62" class="node">
<title>n61</title>
<ellipse fill="#fff8e1" stroke="#424242" cx="2552.5" cy="-162" rx="27" ry="18"/>
<text xml:space="preserve" text-anchor="middle" x="2552.5" y="-158.88" font-family="Courier,monospace" font-size="10.00">12</text>
</g>
<!-- n60&#45;&gt;n61 -->
<g id="edge56" class="edge">
<title>n60&#45;&gt;n61</title>
<path fill="none" stroke="#757575" d="M2528.41,-215.7C2532.34,-207.09 2537.16,-196.55 2541.45,-187.17"/>
<polygon fill="#757575" stroke="#757575" points="2543.59,-188.38 2544.27,-181 2539.14,-186.35 2543.59,-188.38"/>
</g>
<!-- n63 -->
<g id="node64" class="node">
<title>n63</title>
<path fill="#f5f5f5" stroke="#424242" d="M2710.5,-252C2710.5,-252 2680.5,-252 2680.5,-252 2674.5,-252 2668.5,-246 2668.5,-240 2668.5,-240 2668.5,-228 2668.5,-228 2668.5,-222 2674.5,-216 2680.5,-216 2680.5,-216 2710.5,-216 2710.5,-216 2716.5,-216 2722.5,-222 2722.5,-228 2722.5,-228 2722.5,-240 2722.5,-240 2722.5,-246 2716.5,-252 2710.5,-252"/>
<text xml:space="preserve" text-anchor="middle" x="2695.5" y="-230.88" font-family="Courier,monospace" font-size="10.00">Target</text>
</g>
<!-- n62&#45;&gt;n63 -->
<g id="edge61" class="edge">
<title>n62&#45;&gt;n63</title>
<path fill="none" stroke="#757575" d="M2695.5,-287.7C2695.5,-279.47 2695.5,-269.48 2695.5,-260.42"/>
<polygon fill="#757575" stroke="#757575" points="2697.95,-260.62 2695.5,-253.62 2693.05,-260.62 2697.95,-260.62"/>
</g>
<!-- n66 -->
<g id="node67" class="node">
<title>n66</title>
<path fill="#f5f5f5" stroke="#424242" d="M2818.5,-252C2818.5,-252 2788.5,-252 2788.5,-252 2782.5,-252 2776.5,-246 2776.5,-240 2776.5,-240 2776.5,-228 2776.5,-228 2776.5,-222 2782.5,-216 2788.5,-216 2788.5,-216 2818.5,-216 2818.5,-216 2824.5,-216 2830.5,-222 2830.5,-228 2830.5,-228 2830.5,-240 2830.5,-240 2830.5,-246 2824.5,-252 2818.5,-252"/>
<text xml:space="preserve" text-anchor="middle" x="2803.5" y="-230.88" font-family="Courier,monospace" font-size="10.00">Source</text>
</g>
<!-- n62&#45;&gt;n66 -->
<g id="edge63" class="edge">
<title>n62&#45;&gt;n66</title>
<path fill="none" stroke="#757575" d="M2722.48,-287.52C2736.89,-278.18 2754.76,-266.59 2770.05,-256.68"/>
<polygon fill="#757575" stroke="#757575" points="2771.06,-258.95 2775.6,-253.08 2768.39,-254.84 2771.06,-258.95"/>
</g>
<!-- n64 -->
<g id="node65" class="node">
<title>n64</title>
<ellipse fill="#ffe0b2" stroke="#424242" cx="2695.5" cy="-162" rx="97.9" ry="18"/>
<text xml:space="preserve" text-anchor="middle" x="2695.5" y="-158.88" font-family="Courier,monospace" font-size="10.00">LValueDot field=isSquare</text>
</g>
<!-- n63&#45;&gt;n64 -->
<g id="edge60" class="edge">
<title>n63&#45;&gt;n64</title>
<path fill="none" stroke="#757575" d="M2695.5,-215.7C2695.5,-207.47 2695.5,-197.48 2695.5,-188.42"/>
<polygon fill="#757575" stroke="#757575" points="2697.95,-188.62 2695.5,-181.62 2693.05,-188.62 2697.95,-188.62"/>
</g>
<!-- n65 -->
<g id="node66" class="node">
<title>n65</title>
<ellipse fill="#f3e5f5" stroke="#424242" cx="2695.5" cy="-90" rx="46.5" ry="18"/>
<text xml:space="preserve" text-anchor="middle" x="2695.5" y="-86.88" font-family="Courier,monospace" font-size="10.00">LValueID q</text>
</g>
<!-- n64&#45;&gt;n65 -->
<g id="edge59" class="edge">
<title>n64&#45;&gt;n65</title>
<path fill="none" stroke="#757575" d="M2695.5,-143.7C2695.5,-135.47 2695.5,-125.48 2695.5,-116.42"/>
<polygon fill="#757575" stroke="#757575" points="2697.95,-116.62 2695.5,-109.62 2693.05,-116.62 2697.95,-116.62"/>
</g>
<!-- n67 -->
<g id="node68" class="node">
<title>n67</title>
<ellipse fill="#fff8e1" stroke="#424242" cx="2839.5" cy="-162" rx="28.15" ry="18"/>
<text xml:space="preserve" text-anchor="middle" x="2839.5" y="-158.88" font-family="Courier,monospace" font-size="10.00">false</text>
</g>
<!-- n66&#45;&gt;n67 -->
<g id="edge62" class="edge">
<title>n66&#45;&gt;n67</title>
<path fill="none" stroke="#757575" d="M2812.4,-215.7C2816.83,-207.09 2822.25,-196.55 2827.07,-187.17"/>
<polygon fill="#757575" stroke="#757575" points="2829.24,-188.31 2830.26,-180.97 2824.88,-186.07 2829.24,-188.31"/>
</g>
<!-- n69 -->
<g id="node70" class="node">
<title>n69</title>
<path fill="#f5f5f5" stroke="#424242" d="M2991.5,-252C2991.5,-252 2961.5,-252 2961.5,-252 2955.5,-252 2949.5,-246 2949.5,-240 2949.5,-240 2949.5,-228 2949.5,-228 2949.5,-222 2955.5,-216 2961.5,-216 2961.5,-216 2991.5,-216 2991.5,-216 2997.5,-216 3003.5,-222 3003.5,-228 3003.5,-228 3003.5,-240 3003.5,-240 3003.5,-246 2997.5,-252 2991.5,-252"/>
<text xml:space="preserve" text-anchor="middle" x="2976.5" y="-230.88" font-family="Courier,monospace" font-size="10.00">Target</text>
</g>
<!-- n68&#45;&gt;n69 -->
<g id="edge67" class="edge">
<title>n68&#45;&gt;n69</title>
<path fill="none" stroke="#757575" d="M2976.5,-287.7C2976.5,-279.47 2976.5,-269.48 2976.5,-260.42"/>
<polygon fill="#757575" stroke="#757575" points="2978.95,-260.62 2976.5,-253.62 2974.05,-260.62 2978.95,-260.62"/>
</g>
<!-- n72 -->
<g id="node73" class="node">
<title>n72</title>
<path fill="#f5f5f5" stroke="#424242" d="M3095.5,-252C3095.5,-252 3065.5,-252 3065.5,-252 3059.5,-252 3053.5,-246 3053.5,-240 3053.5,-240 3053.5,-228 3053.5,-228 3053.5,-222 3059.5,-216 3065.5,-216 3065.5,-216 3095.5,-216 3095.5,-216 3101.5,-216 3107.5,-222 3107.5,-228 3107.5,-228 3107.5,-240 3107.5,-240 3107.5,-246 3101.5,-252 3095.5,-252"/>
<text xml:space="preserve" text-anchor="middle" x="3080.5" y="-230.88" font-family="Courier,monospace" font-size="10.00">Source</text>
</g>
<!-- n68&#45;&gt;n72 -->
<g id="edge69" class="edge">
<title>n68&#45;&gt;n72</title>
<path fill="none" stroke="#757575" d="M3002.48,-287.52C3016.23,-278.26 3033.26,-266.8 3047.89,-256.95"/>
<polygon fill="#757575" stroke="#757575" points="3049.16,-259.05 3053.6,-253.11 3046.43,-254.98 3049.16,-259.05"/>
</g>
<!-- n70 -->
<g id="node71" class="node">
<title>n70</title>
<ellipse fill="#ffe0b2" stroke="#424242" cx="2976.5" cy="-162" rx="90.56" ry="18"/>
<text xml:space="preserve" text-anchor="middle" x="2976.5" y="-158.88" font-family="Courier,monospace" font-size="10.00">LValueDot field=coords</text>
</g>
<!-- n69&#45;&gt;n70 -->
<g id="edge66" class="edge">
<title>n69&#45;&gt;n70</title>
<path fill="none" stroke="#757575" d="M2976.5,-215.7C2976.5,-207.47 2976.5,-197.48 2976.5,-188.42"/>
<polygon fill="#757575" stroke="#757575" points="2978.95,-188.62 2976.5,-181.62 2974.05,-188.62 2978.95,-188.62"/>
</g>
<!-- n71 -->
<g id="node72" class="node">
<title>n71</title>
<ellipse fill="#f3e5f5" stroke="#424242" cx="2976.5" cy="-90" rx="46.5" ry="18"/>
<text xml:space="preserve" text-anchor="middle" x="2976.5" y="-86.88" font-family="Courier,monospace" font-size="10.00">LValueID q</text>
</g>
<!-- n70&#45;&gt;n71 -->
<g id="edge65" class="edge">
<title>n70&#45;&gt;n71</title>
<path fill="none" stroke="#757575" d="M2976.5,-143.7C2976.5,-135.47 2976.5,-125.48 2976.5,-116.42"/>
<polygon fill="#757575" stroke="#757575" points="2978.95,-116.62 2976.5,-109.62 2974.05,-116.62 2978.95,-116.62"/>
</g>
<!-- n73 -->
<g id="node74" class="node">
<title>n73</title>
<ellipse fill="#e8f5e9" stroke="#424242" cx="3112.5" cy="-162" rx="27" ry="18"/>
<text xml:space="preserve" text-anchor="middle" x="3112.5" y="-158.88" font-family="Courier,monospace" font-size="10.00">Id p</text>
</g>
<!-- n72&#45;&gt;n73 -->
<g id="edge68" class="edge">
<title>n72&#45;&gt;n73</title>
<path fill="none" stroke="#757575" d="M3088.41,-215.7C3092.34,-207.09 3097.16,-196.55 3101.45,-187.17"/>
<polygon fill="#757575" stroke="#757575" points="3103.59,-188.38 3104.27,-181 3099.14,-186.35 3103.59,-188.38"/>
</g>
<!-- n75 -->
<g id="node76" class="node">
<title>n75</title>
<path fill="#f5f5f5" stroke="#424242" d="M3222.5,-252C3222.5,-252 3192.5,-252 3192.5,-252 3186.5,-252 3180.5,-246 3180.5,-240 3180.5,-240 3180.5,-228 3180.5,-228 3180.5,-222 3186.5,-216 3192.5,-216 3192.5,-216 3222.5,-216 3222.5,-216 3228.5,-216 3234.5,-222 3234.5,-228 3234.5,-228 3234.5,-240 3234.5,-240 3234.5,-246 3228.5,-252 3222.5,-252"/>
<text xml:space="preserve" text-anchor="middle" x="3207.5" y="-230.88" font-family="Courier,monospace" font-size="10.00">Target</text>
</g>
<!-- n74&#45;&gt;n75 -->
<g id="edge72" class="edge">
<title>n74&#45;&gt;n75</title>
<path fill="none" stroke="#757575" d="M3207.5,-287.7C3207.5,-279.47 3207.5,-269.48 3207.5,-260.42"/>
<polygon fill="#757575" stroke="#757575" points="3209.95,-260.62 3207.5,-253.62 3205.05,-260.62 3209.95,-260.62"/>
</g>
<!-- n77 -->
<g id="node78" class="node">
<title>n77</title>
<path fill="#f5f5f5" stroke="#424242" d="M3327.5,-252C3327.5,-252 3297.5,-252 3297.5,-252 3291.5,-252 3285.5,-246 3285.5,-240 3285.5,-240 3285.5,-228 3285.5,-228 3285.5,-222 3291.5,-216 3297.5,-216 3297.5,-216 3327.5,-216 3327.5,-216 3333.5,-216 3339.5,-222 3339.5,-228 3339.5,-228 3339.5,-240 3339.5,-240 3339.5,-246 3333.5,-252 3327.5,-252"/>
<text xml:space="preserve" text-anchor="middle" x="3312.5" y="-230.88" font-family="Courier,monospace" font-size="10.00">Source</text>
</g>
<!-- n74&#45;&gt;n77 -->
<g id="edge76" class="edge">
<title>n74&#45;&gt;n77</title>
<path fill="none" stroke="#757575" d="M3233.73,-287.52C3247.61,-278.26 3264.8,-266.8 3279.58,-256.95"/>
<polygon fill="#757575" stroke="#757575" points="3280.89,-259.02 3285.35,-253.1 3278.17,-254.94 3280.89,-259.02"/>
</g>
<!-- n76 -->
<g id="node77" class="node">
<title>n76</title>
<ellipse fill="#f3e5f5" stroke="#424242" cx="3207.5" cy="-162" rx="50.17" ry="18"/>
<text xml:space="preserve" text-anchor="middle" x="3207.5" y="-158.88" font-family="Courier,monospace" font-size="10.00">LValueID ex</text>
</g>
<!-- n75&#45;&gt;n76 -->
<g id="edge71" class="edge">
<title>n75&#45;&gt;n76</title>
<path fill="none" stroke="#757575" d="M3207.5,-215.7C3207.5,-207.47 3207.5,-197.48 3207.5,-188.42"/>
<polygon fill="#757575" stroke="#757575" points="3209.95,-188.62 3207.5,-181.62 3205.05,-188.62 3209.95,-188.62"/>
</g>
<!-- n78 -->
<g id="node79" class="node">
<title>n78</title>
<path fill="#ffe0b2" stroke="#424242" d="M3334.87,-177.05C3334.87,-177.05 3287.18,-164.95 3287.18,-164.95 3281.36,-163.48 3281.36,-160.52 3287.18,-159.05 3287.18,-159.05 3334.87,-146.95 3334.87,-146.95 3340.69,-145.48 3352.32,-145.48 3358.13,-146.95 3358.13,-146.95 3405.83,-159.05 3405.83,-159.05 3411.64,-160.52 3411.64,-163.48 3405.83,-164.95 3405.83,-164.95 3358.13,-177.05 3358.13,-177.05 3352.32,-178.52 3340.69,-178.52 3334.87,-177.05"/>
<text xml:space="preserve" text-anchor="middle" x="3346.5" y="-158.88" font-family="Courier,monospace" font-size="10.00">Dot field=x</text>
</g>
<!-- n77&#45;&gt;n78 -->
<g id="edge75" class="edge">
<title>n77&#45;&gt;n78</title>
<path fill="none" stroke="#757575" d="M3320.91,-215.7C3325.31,-206.62 3330.77,-195.4 3335.5,-185.64"/>
<polygon fill="#757575" stroke="#757575" points="3337.6,-186.93 3338.46,-179.56 3333.19,-184.79 3337.6,-186.93"/>
</g>
<!-- n79 -->
<g id="node80" class="node">
<title>n79</title>
<path fill="#ffe0b2" stroke="#424242" d="M3312.7,-105.81C3312.7,-105.81 3239.39,-92.19 3239.39,-92.19 3233.49,-91.1 3233.49,-88.9 3239.39,-87.81 3239.39,-87.81 3312.7,-74.19 3312.7,-74.19 3318.6,-73.1 3330.4,-73.1 3336.3,-74.19 3336.3,-74.19 3409.62,-87.81 3409.62,-87.81 3415.52,-88.9 3415.52,-91.1 3409.62,-92.19 3409.62,-92.19 3336.3,-105.81 3336.3,-105.81 3330.4,-106.9 3318.6,-106.9 3312.7,-105.81"/>
<text xml:space="preserve" text-anchor="middle" x="3324.5" y="-86.88" font-family="Courier,monospace" font-size="10.00">Dot field=coords</text>
</g>
<!-- n78&#45;&gt;n79 -->
<g id="edge74" class="edge">
<title>n78&#45;&gt;n79</title>
<path fill="none" stroke="#757575" d="M3341.51,-145.12C3338.74,-136.29 3335.23,-125.13 3332.12,-115.24"/>
<polygon fill="#757575" stroke="#757575" points="3334.52,-114.69 3330.08,-108.75 3329.84,-116.16 3334.52,-114.69"/>
</g>
<!-- n80 -->
<g id="node81" class="node">
<title>n80</title>
<ellipse fill="#e8f5e9" stroke="#424242" cx="3324.5" cy="-18" rx="27" ry="18"/>
<text xml:space="preserve" text-anchor="middle" x="3324.5" y="-14.88" font-family="Courier,monospace" font-size="10.00">Id q</text>
</g>
<!-- n79&#45;&gt;n80 -->
<g id="edge73" class="edge">
<title>n79&#45;&gt;n80</title>
<path fill="none" stroke="#757575" d="M3324.5,-71.7C3324.5,-63.47 3324.5,-53.48 3324.5,-44.42"/>
<polygon fill="#757575" stroke="#757575" points="3326.95,-44.62 3324.5,-37.62 3322.05,-44.62 3326.95,-44.62"/>
</g>
<!-- n82 -->
<g id="node83" class="node">
<title>n82</title>
<path fill="#f5f5f5" stroke="#424242" d="M3522.5,-252C3522.5,-252 3492.5,-252 3492.5,-252 3486.5,-252 3480.5,-246 3480.5,-240 3480.5,-240 3480.5,-228 3480.5,-228 3480.5,-222 3486.5,-216 3492.5,-216 3492.5,-216 3522.5,-216 3522.5,-216 3528.5,-216 3534.5,-222 3534.5,-228 3534.5,-228 3534.5,-240 3534.5,-240 3534.5,-246 3528.5,-252 3522.5,-252"/>
<text xml:space="preserve" text-anchor="middle" x="3507.5" y="-230.88" font-family="Courier,monospace" font-size="10.00">Target</text>
</g>
<!-- n81&#45;&gt;n82 -->
<g id="edge81" class="edge">
<title>n81&#45;&gt;n82</title>
<path fill="none" stroke="#757575" d="M3507.5,-287.7C3507.5,-279.47 3507.5,-269.48 3507.5,-260.42"/>
<polygon fill="#757575" stroke="#757575" points="3509.95,-260.62 3507.5,-253.62 3505.05,-260.62 3509.95,-260.62"/>
</g>
<!-- n86 -->
<g id="node87" class="node">
<title>n86</title>
<path fill="#f5f5f5" stroke="#424242" d="M3616.5,-252C3616.5,-252 3586.5,-252 3586.5,-252 3580.5,-252 3574.5,-246 3574.5,-240 3574.5,-240 3574.5,-228 3574.5,-228 3574.5,-222 3580.5,-216 3586.5,-216 3586.5,-216 3616.5,-216 3616.5,-216 3622.5,-216 3628.5,-222 3628.5,-228 3628.5,-228 3628.5,-240 3628.5,-240 3628.5,-246 3622.5,-252 3616.5,-252"/>
<text xml:space="preserve" text-anchor="middle" x="3601.5" y="-230.88" font-family="Courier,monospace" font-size="10.00">Source</text>
</g>
<!-- n81&#45;&gt;n86 -->
<g id="edge83" class="edge">
<title>n81&#45;&gt;n86</title>
<path fill="none" stroke="#757575" d="M3530.74,-287.7C3543.05,-278.53 3558.32,-267.16 3571.52,-257.33"/>
<polygon fill="#757575" stroke="#757575" points="3572.84,-259.4 3576.99,-253.25 3569.92,-255.47 3572.84,-259.4"/>
</g>
<!-- n83 -->
<g id="node84" class="node">
<title>n83</title>
<ellipse fill="#ffe0b2" stroke="#424242" cx="3507.5" cy="-162" rx="72.2" ry="18"/>
<text xml:space="preserve" text-anchor="middle" x="3507.5" y="-158.88" font-family="Courier,monospace" font-size="10.00">LValueDot field=y</text>
</g>
<!-- n82&#45;&gt;n83 -->
<g id="edge80" class="edge">
<title>n82&#45;&gt;n83</title>
<path fill="none" stroke="#757575" d="M3507.5,-215.7C3507.5,-207.47 3507.5,-197.48 3507.5,-188.42"/>
<polygon fill="#757575" stroke="#757575" points="3509.95,-188.62 3507.5,-181.62 3505.05,-188.62 3509.95,-188.62"/>
</g>
<!-- n84 -->
<g id="node85" class="node">
<title>n84</title>
<ellipse fill="#ffe0b2" stroke="#424242" cx="3529.5" cy="-90" rx="90.56" ry="18"/>
<text xml:space="preserve" text-anchor="middle" x="3529.5" y="-86.88" font-family="Courier,monospace" font-size="10.00">LValueDot field=coords</text>
</g>
<!-- n83&#45;&gt;n84 -->
<g id="edge79" class="edge">
<title>n83&#45;&gt;n84</title>
<path fill="none" stroke="#757575" d="M3512.94,-143.7C3515.55,-135.39 3518.73,-125.28 3521.6,-116.14"/>
<polygon fill="#757575" stroke="#757575" points="3523.91,-116.96 3523.67,-109.55 3519.24,-115.49 3523.91,-116.96"/>
</g>
<!-- n85 -->
<g id="node86" class="node">
<title>n85</title>
<ellipse fill="#f3e5f5" stroke="#424242" cx="3529.5" cy="-18" rx="46.5" ry="18"/>
<text xml:space="preserve" text-anchor="middle" x="3529.5" y="-14.88" font-family="Courier,monospace" font-size="10.00">LValueID q</text>
</g>
<!-- n84&#45;&gt;n85 -->
<g id="edge78" class="edge">
<title>n84&#45;&gt;n85</title>
<path fill="none" stroke="#757575" d="M3529.5,-71.7C3529.5,-63.47 3529.5,-53.48 3529.5,-44.42"/>
<polygon fill="#757575" stroke="#757575" points="3531.95,-44.62 3529.5,-37.62 3527.05,-44.62 3531.95,-44.62"/>
</g>
<!-- n87 -->
<g id="node88" class="node">
<title>n87</title>
<ellipse fill="#fff8e1" stroke="#424242" cx="3624.5" cy="-162" rx="27" ry="18"/>
<text xml:space="preserve" text-anchor="middle" x="3624.5" y="-158.88" font-family="Courier,monospace" font-size="10.00">5</text>
</g>
<!-- n86&#45;&gt;n87 -->
<g id="edge82" class="edge">
<title>n86&#45;&gt;n87</title>
<path fill="none" stroke="#757575" d="M3607.19,-215.7C3609.92,-207.39 3613.24,-197.28 3616.24,-188.14"/>
<polygon fill="#757575" stroke="#757575" points="3618.55,-188.96 3618.41,-181.54 3613.9,-187.43 3618.55,-188.96"/>
</g>
<!-- n89 -->
<g id="node90" class="node">
<title>n89</title>
<path fill="#f5f5f5" stroke="#424242" d="M3711.5,-252C3711.5,-252 3681.5,-252 3681.5,-252 3675.5,-252 3669.5,-246 3669.5,-240 3669.5,-240 3669.5,-228 3669.5,-228 3669.5,-222 3675.5,-216 3681.5,-216 3681.5,-216 3711.5,-216 3711.5,-216 3717.5,-216 3723.5,-222 3723.5,-228 3723.5,-228 3723.5,-240 3723.5,-240 3723.5,-246 3717.5,-252 3711.5,-252"/>
<text xml:space="preserve" text-anchor="middle" x="3696.5" y="-230.88" font-family="Courier,monospace" font-size="10.00">Target</text>
</g>
<!-- n88&#45;&gt;n89 -->
<g id="edge86" class="edge">
<title>n88&#45;&gt;n89</title>
<path fill="none" stroke="#757575" d="M3696.5,-287.7C3696.5,-279.47 3696.5,-269.48 3696.5,-260.42"/>
<polygon fill="#757575" stroke="#757575" points="3698.95,-260.62 3696.5,-253.62 3694.05,-260.62 3698.95,-260.62"/>
</g>
<!-- n91 -->
<g id="node92" class="node">
<title>n91</title>
<path fill="#f5f5f5" stroke="#424242" d="M3783.5,-252C3783.5,-252 3753.5,-252 3753.5,-252 3747.5,-252 3741.5,-246 3741.5,-240 3741.5,-240 3741.5,-228 3741.5,-228 3741.5,-222 3747.5,-216 3753.5,-216 3753.5,-216 3783.5,-216 3783.5,-216 3789.5,-216 3795.5,-222 3795.5,-228 3795.5,-228 3795.5,-240 3795.5,-240 3795.5,-246 3789.5,-252 3783.5,-252"/>
<text xml:space="preserve" text-anchor="middle" x="3768.5" y="-230.88" font-family="Courier,monospace" font-size="10.00">Source</text>
</g>
<!-- n88&#45;&gt;n91 -->
<g id="edge90" class="edge">
<title>n88&#45;&gt;n91</title>
<path fill="none" stroke="#757575" d="M3714.3,-287.7C3723.47,-278.78 3734.79,-267.78 3744.7,-258.14"/>
<polygon fill="#757575" stroke="#757575" points="3746.26,-260.04 3749.57,-253.4 3742.85,-256.52 3746.26,-260.04"/>
</g>
<!-- n90 -->
<g id="node91" class="node">
<title>n90</title>
<ellipse fill="#f3e5f5" stroke="#424242" cx="3719.5" cy="-162" rx="50.17" ry="18"/>
<text xml:space="preserve" text-anchor="middle" x="3719.5" y="-158.88" font-family="Courier,monospace" font-size="10.00">LValueID ex</text>
</g>
<!-- n89&#45;&gt;n90 -->
<g id="edge85" class="edge">
<title>n89&#45;&gt;n90</title>
<path fill="none" stroke="#757575" d="M3702.19,-215.7C3704.92,-207.39 3708.24,-197.28 3711.24,-188.14"/>
<polygon fill="#757575" stroke="#757575" points="3713.55,-188.96 3713.41,-181.54 3708.9,-187.43 3713.55,-188.96"/>
</g>
<!-- n92 -->
<g id="node93" class="node">
<title>n92</title>
<path fill="#ffe0b2" stroke="#424242" d="M3846.87,-177.05C3846.87,-177.05 3799.18,-164.95 3799.18,-164.95 3793.36,-163.48 3793.36,-160.52 3799.18,-159.05 3799.18,-159.05 3846.87,-146.95 3846.87,-146.95 3852.69,-145.48 3864.32,-145.48 3870.13,-146.95 3870.13,-146.95 3917.83,-159.05 3917.83,-159.05 3923.64,-160.52 3923.64,-163.48 3917.83,-164.95 3917.83,-164.95 3870.13,-177.05 3870.13,-177.05 3864.32,-178.52 3852.69,-178.52 3846.87,-177.05"/>
<text xml:space="preserve" text-anchor="middle" x="3858.5" y="-158.88" font-family="Courier,monospace" font-size="10.00">Dot field=y</text>
</g>
<!-- n91&#45;&gt;n92 -->
<g id="edge89" class="edge">
<title>n91&#45;&gt;n92</title>
<path fill="none" stroke="#757575" d="M3790.75,-215.7C3804.26,-205.19 3821.48,-191.79 3835.18,-181.14"/>
<polygon fill="#757575" stroke="#757575" points="3836.38,-183.31 3840.4,-177.08 3833.37,-179.45 3836.38,-183.31"/>
</g>
<!-- n93 -->
<g id="node94" class="node">
<title>n93</title>
<path fill="#ffe0b2" stroke="#424242" d="M3846.7,-105.81C3846.7,-105.81 3773.39,-92.19 3773.39,-92.19 3767.49,-91.1 3767.49,-88.9 3773.39,-87.81 3773.39,-87.81 3846.7,-74.19 3846.7,-74.19 3852.6,-73.1 3864.4,-73.1 3870.3,-74.19 3870.3,-74.19 3943.62,-87.81 3943.62,-87.81 3949.52,-88.9 3949.52,-91.1 3943.62,-92.19 3943.62,-92.19 3870.3,-105.81 3870.3,-105.81 3864.4,-106.9 3852.6,-106.9 3846.7,-105.81"/>
<text xml:space="preserve" text-anchor="middle" x="3858.5" y="-86.88" font-family="Courier,monospace" font-size="10.00">Dot field=coords</text>
</g>
<!-- n92&#45;&gt;n93 -->
<g id="edge88" class="edge">
<title>n92&#45;&gt;n93</title>
<path fill="none" stroke="#757575" d="M3858.5,-143.7C3858.5,-135.47 3858.5,-125.48 3858.5,-116.42"/>
<polygon fill="#757575" stroke="#757575" points="3860.95,-116.62 3858.5,-109.62 3856.05,-116.62 3860.95,-116.62"/>
</g>
<!-- n94 -->
<g id="node95" class="node">
<title>n94</title>
<ellipse fill="#e8f5e9" stroke="#424242" cx="3858.5" cy="-18" rx="27" ry="18"/>
<text xml:space="preserve" text-anchor="middle" x="3858.5" y="-14.88" font-family="Courier,monospace" font-size="10.00">Id q</text>
</g>
<!-- n93&#45;&gt;n94 -->
<g id="edge87" class="edge">
<title>n93&#45;&gt;n94</title>
<path fill="none" stroke="#757575" d="M3858.5,-71.7C3858.5,-63.47 3858.5,-53.48 3858.5,-44.42"/>
<polygon fill="#757575" stroke="#757575" points="3860.95,-44.62 3858.5,-37.62 3856.05,-44.62 3860.95,-44.62"/>
</g>
<!-- n96 -->
<g id="node97" class="node">
<title>n96</title>
<ellipse fill="#fff8e1" stroke="#424242" cx="3840.5" cy="-234" rx="27" ry="18"/>
<text xml:space="preserve" text-anchor="middle" x="3840.5" y="-230.88" font-family="Courier,monospace" font-size="10.00">0</text>
</g>
<!-- n95&#45;&gt;n96 -->
<g id="edge92" class="edge">
<title>n95&#45;&gt;n96</title>
<path fill="none" stroke="#757575" d="M3813.4,-287.7C3817.94,-278.88 3823.52,-268.03 3828.43,-258.47"/>
<polygon fill="#757575" stroke="#757575" points="3830.48,-259.84 3831.51,-252.49 3826.13,-257.6 3830.48,-259.84"/>
</g>
</g>
</svg>
