<?xml version="1.0" encoding="UTF-8" standalone="no"?>
<!DOCTYPE svg PUBLIC "-//W3C//DTD SVG 1.1//EN"
 "http://www.w3.org/Graphics/SVG/1.1/DTD/svg11.dtd">
<!-- Generated by graphviz version 13.1.2 (20250808.2320)
 -->
<!-- Title: mini_ast Pages: 1 -->
<svg width="2620pt" height="620pt"
 viewBox="0.00 0.00 2620.00 620.00" xmlns="http://www.w3.org/2000/svg" xmlns:xlink="http://www.w3.org/1999/xlink">
<g id="graph0" class="graph" transform="scale(1 1) rotate(0) translate(4 616)">
<title>mini_ast</title>
<polygon fill="white" stroke="none" points="-4,4 -4,-616 2616.17,-616 2616.17,4 -4,4"/>
<!-- n0 -->
<g id="node1" class="node">
<title>n0</title>
<path fill="#f5f5f5" stroke="#424242" d="M306.17,-612C306.17,-612 272.17,-612 272.17,-612 266.17,-612 260.17,-606 260.17,-600 260.17,-600 260.17,-588 260.17,-588 260.17,-582 266.17,-576 272.17,-576 272.17,-576 306.17,-576 306.17,-576 312.17,-576 318.17,-582 318.17,-588 318.17,-588 318.17,-600 318.17,-600 318.17,-606 312.17,-612 306.17,-612"/>
<text xml:space="preserve" text-anchor="middle" x="289.17" y="-590.88" font-family="Courier,monospace" font-size="10.00">Program</text>
</g>
<!-- n1 -->
<g id="node2" class="node">
<title>n1</title>
<path fill="#f5f5f5" stroke="#424242" d="M199.17,-540C199.17,-540 169.17,-540 169.17,-540 163.17,-540 157.17,-534 157.17,-528 157.17,-528 157.17,-516 157.17,-516 157.17,-510 163.17,-504 169.17,-504 169.17,-504 199.17,-504 199.17,-504 205.17,-504 211.17,-510 211.17,-516 211.17,-516 211.17,-528 211.17,-528 211.17,-534 205.17,-540 199.17,-540"/>
<text xml:space="preserve" text-anchor="middle" x="184.17" y="-518.88" font-family="Courier,monospace" font-size="10.00">Types</text>
</g>
<!-- n0&#45;&gt;n1 -->
<g id="edge4" class="edge">
<title>n0&#45;&gt;n1</title>
<path fill="none" stroke="#757575" d="M262.95,-575.52C249.06,-566.26 231.87,-554.8 217.1,-544.95"/>
<polygon fill="#757575" stroke="#757575" points="218.51,-542.94 211.32,-541.1 215.79,-547.02 218.51,-542.94"/>
</g>
<!-- n5 -->
<g id="node6" class="node">
<title>n5</title>
<path fill="#f5f5f5" stroke="#424242" d="M330.17,-540C330.17,-540 248.17,-540 248.17,-540 242.17,-540 236.17,-534 236.17,-528 236.17,-528 236.17,-516 236.17,-516 236.17,-510 242.17,-504 248.17,-504 248.17,-504 330.17,-504 330.17,-504 336.17,-504 342.17,-510 342.17,-516 342.17,-516 342.17,-528 342.17,-528 342.17,-534 336.17,-540 330.17,-540"/>
<text xml:space="preserve" text-anchor="middle" x="289.17" y="-518.88" font-family="Courier,monospace" font-size="10.00">Top Level Decls</text>
</g>
<!-- n0&#45;&gt;n5 -->
<g id="edge6" class="edge">
<title>n0&#45;&gt;n5</title>
<path fill="none" stroke="#757575" d="M289.17,-575.7C289.17,-567.47 289.17,-557.48 289.17,-548.42"/>
<polygon fill="#757575" stroke="#757575" points="291.62,-548.62 289.17,-541.62 286.72,-548.62 291.62,-548.62"/>
</g>
<!-- n7 -->
<g id="node8" class="node">
<title>n7</title>
<path fill="#f5f5f5" stroke="#424242" d="M435.17,-540C435.17,-540 389.17,-540 389.17,-540 383.17,-540 377.17,-534 377.17,-528 377.17,-528 377.17,-516 377.17,-516 377.17,-510 383.17,-504 389.17,-504 389.17,-504 435.17,-504 435.17,-504 441.17,-504 447.17,-510 447.17,-516 447.17,-516 447.17,-528 447.17,-528 447.17,-534 441.17,-540 435.17,-540"/>
<text xml:space="preserve" text-anchor="middle" x="412.17" y="-518.88" font-family="Courier,monospace" font-size="10.00">Functions</text>
</g>
<!-- n0&#45;&gt;n7 -->
<g id="edge94" class="edge">
<title>n0&#45;&gt;n7</title>
<path fill="none" stroke="#757575" d="M318.63,-576.23C335.45,-566.66 356.7,-554.57 374.69,-544.33"/>
<polygon fill="#757575" stroke="#757575" points="375.48,-546.7 380.35,-541.11 373.06,-542.44 375.48,-546.7"/>
</g>
<!-- n2 -->
<g id="node3" class="node">
<title>n2</title>
<path fill="#f5f5f5" stroke="#424242" d="M200.17,-468C200.17,-468 136.17,-468 136.17,-468 130.17,-468 124.17,-462 124.17,-456 124.17,-456 124.17,-444 124.17,-444 124.17,-438 130.17,-432 136.17,-432 136.17,-432 200.17,-432 200.17,-432 206.17,-432 212.17,-438 212.17,-444 212.17,-444 212.17,-456 212.17,-456 212.17,-462 206.17,-468 200.17,-468"/>
<text xml:space="preserve" text-anchor="middle" x="168.17" y="-446.88" font-family="Courier,monospace" font-size="10.00">Struct &#160;Pair</text>
</g>
<!-- n1&#45;&gt;n2 -->
<g id="edge3" class="edge">
<title>n1&#45;&gt;n2</title>
<path fill="none" stroke="#757575" d="M180.22,-503.7C178.32,-495.39 176.01,-485.28 173.92,-476.14"/>
<polygon fill="#757575" stroke="#757575" points="176.37,-475.86 172.42,-469.58 171.59,-476.95 176.37,-475.86"/>
</g>
<!-- n3 -->
<g id="node4" class="node">
<title>n3</title>
<ellipse fill="#f3e5f5" stroke="#424242" cx="50.17" cy="-378" rx="50.17" ry="18"/>
<text xml:space="preserve" text-anchor="middle" x="50.17" y="-374.88" font-family="Courier,monospace" font-size="10.00">Decl int &#160;x</text>
</g>
<!-- n2&#45;&gt;n3 -->
<g id="edge1" class="edge">
<title>n2&#45;&gt;n3</title>
<path fill="none" stroke="#757575" d="M138.7,-431.52C121.62,-421.38 100.09,-408.61 82.53,-398.2"/>
<polygon fill="#757575" stroke="#757575" points="83.85,-396.13 76.58,-394.67 81.35,-400.34 83.85,-396.13"/>
</g>
<!-- n4 -->
<g id="node5" class="node">
<title>n4</title>
<ellipse fill="#f3e5f5" stroke="#424242" cx="168.17" cy="-378" rx="50.17" ry="18"/>
<text xml:space="preserve" text-anchor="middle" x="168.17" y="-374.88" font-family="Courier,monospace" font-size="10.00">Decl int &#160;y</text>
</g>
<!-- n2&#45;&gt;n4 -->
<g id="edge2" class="edge">
<title>n2&#45;&gt;n4</title>
<path fill="none" stroke="#757575" d="M168.17,-431.7C168.17,-423.47 168.17,-413.48 168.17,-404.42"/>
<polygon fill="#757575" stroke="#757575" points="170.62,-404.62 168.17,-397.62 165.72,-404.62 170.62,-404.62"/>
</g>
<!-- n6 -->
<g id="node7" class="node">
<title>n6</title>
<ellipse fill="#f3e5f5" stroke="#424242" cx="289.17" cy="-450" rx="50.17" ry="18"/>
<text xml:space="preserve" text-anchor="middle" x="289.17" y="-446.88" font-family="Courier,monospace" font-size="10.00">Decl int &#160;g</text>
</g>
<!-- n5&#45;&gt;n6 -->
<g id="edge5" class="edge">
<title>n5&#45;&gt;n6</title>
<path fill="none" stroke="#757575" d="M289.17,-503.7C289.17,-495.47 289.17,-485.48 289.17,-476.42"/>
<polygon fill="#757575" stroke="#757575" points="291.62,-476.62 289.17,-469.62 286.72,-476.62 291.62,-476.62"/>
</g>
<!-- n8 -->
<g id="node9" class="node">
<title>n8</title>
<path fill="#f5f5f5" stroke="#424242" d="M432.17,-468C432.17,-468 392.17,-468 392.17,-468 386.17,-468 380.17,-462 380.17,-456 380.17,-456 380.17,-444 380.17,-444 380.17,-438 386.17,-432 392.17,-432 392.17,-432 432.17,-432 432.17,-432 438.17,-432 444.17,-438 444.17,-444 444.17,-444 444.17,-456 444.17,-456 444.17,-462 438.17,-468 432.17,-468"/>
<text xml:space="preserve" text-anchor="middle" x="412.17" y="-446.88" font-family="Courier,monospace" font-size="10.00">fun &#160;add</text>
</g>
<!-- n7&#45;&gt;n8 -->
<g id="edge37" class="edge">
<title>n7&#45;&gt;n8</title>
<path fill="none" stroke="#757575" d="M412.17,-503.7C412.17,-495.47 412.17,-485.48 412.17,-476.42"/>
<polygon fill="#757575" stroke="#757575" points="414.62,-476.62 412.17,-469.62 409.72,-476.62 414.62,-476.62"/>
</g>
<!-- n39 -->
<g id="node40" class="node">
<title>n39</title>
<path fill="#f5f5f5" stroke="#424242" d="M1111.17,-468C1111.17,-468 1065.17,-468 1065.17,-468 1059.17,-468 1053.17,-462 1053.17,-456 1053.17,-456 1053.17,-444 1053.17,-444 1053.17,-438 1059.17,-432 1065.17,-432 1065.17,-432 1111.17,-432 1111.17,-432 1117.17,-432 1123.17,-438 1123.17,-444 1123.17,-444 1123.17,-456 1123.17,-456 1123.17,-462 1117.17,-468 1111.17,-468"/>
<text xml:space="preserve" text-anchor="middle" x="1088.17" y="-446.88" font-family="Courier,monospace" font-size="10.00">fun &#160;main</text>
</g>
<!-- n7&#45;&gt;n39 -->
<g id="edge93" class="edge">
<title>n7&#45;&gt;n39</title>
<path fill="none" stroke="#757575" d="M447.57,-517.34C561.62,-505.52 919.39,-468.48 1044.48,-455.52"/>
<polygon fill="#757575" stroke="#757575" points="1044.51,-457.98 1051.22,-454.83 1044,-453.11 1044.51,-457.98"/>
</g>
<!-- n9 -->
<g id="node10" class="node">
<title>n9</title>
<path fill="#f5f5f5" stroke="#424242" d="M278.17,-396C278.17,-396 248.17,-396 248.17,-396 242.17,-396 236.17,-390 236.17,-384 236.17,-384 236.17,-372 236.17,-372 236.17,-366 242.17,-360 248.17,-360 248.17,-360 278.17,-360 278.17,-360 284.17,-360 290.17,-366 290.17,-372 290.17,-372 290.17,-384 290.17,-384 290.17,-390 284.17,-396 278.17,-396"/>
<text xml:space="preserve" text-anchor="middle" x="263.17" y="-374.88" font-family="Courier,monospace" font-size="10.00">Params</text>
</g>
<!-- n8&#45;&gt;n9 -->
<g id="edge8" class="edge">
<title>n8&#45;&gt;n9</title>
<path fill="none" stroke="#757575" d="M380.02,-433.94C357.4,-423.35 326.43,-408.83 299.17,-396 298.72,-395.79 298.27,-395.58 297.82,-395.36"/>
<polygon fill="#757575" stroke="#757575" points="299.04,-393.23 291.67,-392.46 296.95,-397.66 299.04,-393.23"/>
</g>
<!-- n11 -->
<g id="node12" class="node">
<title>n11</title>
<path fill="#f5f5f5" stroke="#424242" d="M350.17,-396C350.17,-396 320.17,-396 320.17,-396 314.17,-396 308.17,-390 308.17,-384 308.17,-384 308.17,-372 308.17,-372 308.17,-366 314.17,-360 320.17,-360 320.17,-360 350.17,-360 350.17,-360 356.17,-360 362.17,-366 362.17,-372 362.17,-372 362.17,-384 362.17,-384 362.17,-390 356.17,-396 350.17,-396"/>
<text xml:space="preserve" text-anchor="middle" x="335.17" y="-374.88" font-family="Courier,monospace" font-size="10.00">Locals</text>
</g>
<!-- n8&#45;&gt;n11 -->
<g id="edge10" class="edge">
<title>n8&#45;&gt;n11</title>
<path fill="none" stroke="#757575" d="M393.14,-431.7C383.24,-422.69 371,-411.57 360.33,-401.87"/>
<polygon fill="#757575" stroke="#757575" points="362.2,-400.26 355.37,-397.37 358.91,-403.89 362.2,-400.26"/>
</g>
<!-- n13 -->
<g id="node14" class="node">
<title>n13</title>
<path fill="#f5f5f5" stroke="#424242" d="M450.17,-396C450.17,-396 392.17,-396 392.17,-396 386.17,-396 380.17,-390 380.17,-384 380.17,-384 380.17,-372 380.17,-372 380.17,-366 386.17,-360 392.17,-360 392.17,-360 450.17,-360 450.17,-360 456.17,-360 462.17,-366 462.17,-372 462.17,-372 462.17,-384 462.17,-384 462.17,-390 456.17,-396 450.17,-396"/>
<text xml:space="preserve" text-anchor="middle" x="421.17" y="-374.88" font-family="Courier,monospace" font-size="10.00">Return Type</text>
</g>
<!-- n8&#45;&gt;n13 -->
<g id="edge12" class="edge">
<title>n8&#45;&gt;n13</title>
<path fill="none" stroke="#757575" d="M414.4,-431.7C415.45,-423.47 416.74,-413.48 417.9,-404.42"/>
<polygon fill="#757575" stroke="#757575" points="420.32,-404.86 418.78,-397.61 415.46,-404.24 420.32,-404.86"/>
</g>
<!-- n15 -->
<g id="node16" class="node">
<title>n15</title>
<path fill="#f5f5f5" stroke="#424242" d="M580.17,-396C580.17,-396 550.17,-396 550.17,-396 544.17,-396 538.17,-390 538.17,-384 538.17,-384 538.17,-372 538.17,-372 538.17,-366 544.17,-360 550.17,-360 550.17,-360 580.17,-360 580.17,-360 586.17,-360 592.17,-366 592.17,-372 592.17,-372 592.17,-384 592.17,-384 592.17,-390 586.17,-396 580.17,-396"/>
<text xml:space="preserve" text-anchor="middle" x="565.17" y="-374.88" font-family="Courier,monospace" font-size="10.00">Body</text>
</g>
<!-- n8&#45;&gt;n15 -->
<g id="edge36" class="edge">
<title>n8&#45;&gt;n15</title>
<path fill="none" stroke="#757575" d="M444.62,-434.15C469.74,-422.66 504.47,-406.77 530.21,-395"/>
<polygon fill="#757575" stroke="#757575" points="531.16,-397.25 536.51,-392.11 529.12,-392.8 531.16,-397.25"/>
</g>
<!-- n10 -->
<g id="node11" class="node">
<title>n10</title>
<ellipse fill="#f3e5f5" stroke="#424242" cx="175.17" cy="-306" rx="83.21" ry="18"/>
<text xml:space="preserve" text-anchor="middle" x="175.17" y="-302.88" font-family="Courier,monospace" font-size="10.00">Decl struct &#160;Pair &#160;p</text>
</g>
<!-- n9&#45;&gt;n10 -->
<g id="edge7" class="edge">
<title>n9&#45;&gt;n10</title>
<path fill="none" stroke="#757575" d="M241.42,-359.7C229.83,-350.47 215.43,-339.03 203.03,-329.16"/>
<polygon fill="#757575" stroke="#757575" points="204.56,-327.25 197.56,-324.81 201.51,-331.08 204.56,-327.25"/>
</g>
<!-- n12 -->
<g id="node13" class="node">
<title>n12</title>
<ellipse fill="#f3e5f5" stroke="#424242" cx="326.17" cy="-306" rx="50.17" ry="18"/>
<text xml:space="preserve" text-anchor="middle" x="326.17" y="-302.88" font-family="Courier,monospace" font-size="10.00">Decl int &#160;t</text>
</g>
<!-- n11&#45;&gt;n12 -->
<g id="edge9" class="edge">
<title>n11&#45;&gt;n12</title>
<path fill="none" stroke="#757575" d="M332.95,-359.7C331.89,-351.47 330.61,-341.48 329.44,-332.42"/>
<polygon fill="#757575" stroke="#757575" points="331.89,-332.24 328.56,-325.61 327.03,-332.86 331.89,-332.24"/>
</g>
<!-- n14 -->
<g id="node15" class="node">
<title>n14</title>
<ellipse fill="#fff8e1" stroke="#424242" cx="421.17" cy="-306" rx="27" ry="18"/>
<text xml:space="preserve" text-anchor="middle" x="421.17" y="-302.88" font-family="Courier,monospace" font-size="10.00">int</text>
</g>
<!-- n13&#45;&gt;n14 -->
<g id="edge11" class="edge">
<title>n13&#45;&gt;n14</title>
<path fill="none" stroke="#757575" d="M421.17,-359.7C421.17,-351.47 421.17,-341.48 421.17,-332.42"/>
<polygon fill="#757575" stroke="#757575" points="423.62,-332.62 421.17,-325.62 418.72,-332.62 423.62,-332.62"/>
</g>
<!-- n16 -->
<g id="node17" class="node">
<title>n16</title>
<path fill="#f5f5f5" stroke="#424242" d="M508.17,-324C508.17,-324 478.17,-324 478.17,-324 472.17,-324 466.17,-318 466.17,-312 466.17,-312 466.17,-300 466.17,-300 466.17,-294 472.17,-288 478.17,-288 478.17,-288 508.17,-288 508.17,-288 514.17,-288 520.17,-294 520.17,-300 520.17,-300 520.17,-312 520.17,-312 520.17,-318 514.17,-324 508.17,-324"/>
<text xml:space="preserve" text-anchor="middle" x="493.17" y="-302.88" font-family="Courier,monospace" font-size="10.00">Assign</text>
</g>
<!-- n15&#45;&gt;n16 -->
<g id="edge18" class="edge">
<title>n15&#45;&gt;n16</title>
<path fill="none" stroke="#757575" d="M547.38,-359.7C538.2,-350.78 526.89,-339.78 516.98,-330.14"/>
<polygon fill="#757575" stroke="#757575" points="518.83,-328.52 512.1,-325.4 515.41,-332.04 518.83,-328.52"/>
</g>
<!-- n22 -->
<g id="node23" class="node">
<title>n22</title>
<path fill="#f5f5f5" stroke="#424242" d="M580.17,-324C580.17,-324 550.17,-324 550.17,-324 544.17,-324 538.17,-318 538.17,-312 538.17,-312 538.17,-300 538.17,-300 538.17,-294 544.17,-288 550.17,-288 550.17,-288 580.17,-288 580.17,-288 586.17,-288 592.17,-294 592.17,-300 592.17,-300 592.17,-312 592.17,-312 592.17,-318 586.17,-324 580.17,-324"/>
<text xml:space="preserve" text-anchor="middle" x="565.17" y="-302.88" font-family="Courier,monospace" font-size="10.00">Assign</text>
</g>
<!-- n15&#45;&gt;n22 -->
<g id="edge24" class="edge">
<title>n15&#45;&gt;n22</title>
<path fill="none" stroke="#757575" d="M565.17,-359.7C565.17,-351.47 565.17,-341.48 565.17,-332.42"/>
<polygon fill="#757575" stroke="#757575" points="567.62,-332.62 565.17,-325.62 562.72,-332.62 567.62,-332.62"/>
</g>
<!-- n28 -->
<g id="node29" class="node">
<title>n28</title>
<path fill="#f5f5f5" stroke="#424242" d="M652.17,-324C652.17,-324 622.17,-324 622.17,-324 616.17,-324 610.17,-318 610.17,-312 610.17,-312 610.17,-300 610.17,-300 610.17,-294 616.17,-288 622.17,-288 622.17,-288 652.17,-288 652.17,-288 658.17,-288 664.17,-294 664.17,-300 664.17,-300 664.17,-312 664.17,-312 664.17,-318 658.17,-324 652.17,-324"/>
<text xml:space="preserve" text-anchor="middle" x="637.17" y="-302.88" font-family="Courier,monospace" font-size="10.00">Assign</text>
</g>
<!-- n15&#45;&gt;n28 -->
<g id="edge33" class="edge">
<title>n15&#45;&gt;n28</title>
<path fill="none" stroke="#757575" d="M582.97,-359.7C592.14,-350.78 603.46,-339.78 613.37,-330.14"/>
<polygon fill="#757575" stroke="#757575" points="614.93,-332.04 618.25,-325.4 611.52,-328.52 614.93,-332.04"/>
</g>
<!-- n37 -->
<g id="node38" class="node">
<title>n37</title>
<path fill="#f5f5f5" stroke="#424242" d="M724.17,-324C724.17,-324 694.17,-324 694.17,-324 688.17,-324 682.17,-318 682.17,-312 682.17,-312 682.17,-300 682.17,-300 682.17,-294 688.17,-288 694.17,-288 694.17,-288 724.17,-288 724.17,-288 730.17,-288 736.17,-294 736.17,-300 736.17,-300 736.17,-312 736.17,-312 736.17,-318 730.17,-324 724.17,-324"/>
<text xml:space="preserve" text-anchor="middle" x="709.17" y="-302.88" font-family="Courier,monospace" font-size="10.00">Return</text>
</g>
<!-- n15&#45;&gt;n37 -->
<g id="edge35" class="edge">
<title>n15&#45;&gt;n37</title>
<path fill="none" stroke="#757575" d="M592.6,-363.67C615.82,-352.38 649.24,-336.14 674.35,-323.93"/>
<polygon fill="#757575" stroke="#757575" points="675.27,-326.21 680.49,-320.94 673.12,-321.8 675.27,-326.21"/>
</g>
<!-- n17 -->
<g id="node18" class="node">
<title>n17</title>
<path fill="#f5f5f5" stroke="#424242" d="M267.17,-252C267.17,-252 237.17,-252 237.17,-252 231.17,-252 225.17,-246 225.17,-240 225.17,-240 225.17,-228 225.17,-228 225.17,-222 231.17,-216 237.17,-216 237.17,-216 267.17,-216 267.17,-216 273.17,-216 279.17,-222 279.17,-228 279.17,-228 279.17,-240 279.17,-240 279.17,-246 273.17,-252 267.17,-252"/>
<text xml:space="preserve" text-anchor="middle" x="252.17" y="-230.88" font-family="Courier,monospace" font-size="10.00">Target</text>
</g>
<!-- n16&#45;&gt;n17 -->
<g id="edge15" class="edge">
<title>n16&#45;&gt;n17</title>
<path fill="none" stroke="#757575" d="M465.88,-291.46C462.97,-290.22 460.03,-289.03 457.17,-288 399.12,-267 329.02,-250.75 287.65,-242.05"/>
<polygon fill="#757575" stroke="#757575" points="288.36,-239.69 281.01,-240.66 287.36,-244.49 288.36,-239.69"/>
</g>
<!-- n20 -->
<g id="node21" class="node">
<title>n20</title>
<path fill="#f5f5f5" stroke="#424242" d="M388.17,-252C388.17,-252 358.17,-252 358.17,-252 352.17,-252 346.17,-246 346.17,-240 346.17,-240 346.17,-228 346.17,-228 346.17,-222 352.17,-216 358.17,-216 358.17,-216 388.17,-216 388.17,-216 394.17,-216 400.17,-222 400.17,-228 400.17,-228 400.17,-240 400.17,-240 400.17,-246 394.17,-252 388.17,-252"/>
<text xml:space="preserve" text-anchor="middle" x="373.17" y="-230.88" font-family="Courier,monospace" font-size="10.00">Source</text>
</g>
<!-- n16&#45;&gt;n20 -->
<g id="edge17" class="edge">
<title>n16&#45;&gt;n20</title>
<path fill="none" stroke="#757575" d="M465.94,-289.12C448.61,-279 426,-265.82 407.45,-254.99"/>
<polygon fill="#757575" stroke="#757575" points="408.88,-252.99 401.6,-251.58 406.41,-257.23 408.88,-252.99"/>
</g>
<!-- n18 -->
<g id="node19" class="node">
<title>n18</title>
<ellipse fill="#ffe0b2" stroke="#424242" cx="215.17" cy="-162" rx="75.87" ry="18"/>
<text xml:space="preserve" text-anchor="middle" x="215.17" y="-158.88" font-family="Courier,monospace" font-size="10.00">LValueDot field= x</text>
</g>
<!-- n17&#45;&gt;n18 -->
<g id="edge14" class="edge">
<title>n17&#45;&gt;n18</title>
<path fill="none" stroke="#757575" d="M243.03,-215.7C238.55,-207.22 233.07,-196.86 228.17,-187.58"/>
<polygon fill="#757575" stroke="#757575" points="230.36,-186.49 224.92,-181.44 226.03,-188.78 230.36,-186.49"/>
</g>
<!-- n19 -->
<g id="node20" class="node">
<title>n19</title>
<ellipse fill="#f3e5f5" stroke="#424242" cx="215.17" cy="-90" rx="50.17" ry="18"/>
<text xml:space="preserve" text-anchor="middle" x="215.17" y="-86.88" font-family="Courier,monospace" font-size="10.00">LValueID &#160;p</text>
</g>
<!-- n18&#45;&gt;n19 -->
<g id="edge13" class="edge">
<title>n18&#45;&gt;n19</title>
<path fill="none" stroke="#757575" d="M215.17,-143.7C215.17,-135.47 215.17,-125.48 215.17,-116.42"/>
<polygon fill="#757575" stroke="#757575" points="217.62,-116.62 215.17,-109.62 212.72,-116.62 217.62,-116.62"/>
</g>
<!-- n21 -->
<g id="node22" class="node">
<title>n21</title>
<ellipse fill="#fff8e1" stroke="#424242" cx="336.17" cy="-162" rx="27" ry="18"/>
<text xml:space="preserve" text-anchor="middle" x="336.17" y="-158.88" font-family="Courier,monospace" font-size="10.00">10</text>
</g>
<!-- n20&#45;&gt;n21 -->
<g id="edge16" class="edge">
<title>n20&#45;&gt;n21</title>
<path fill="none" stroke="#757575" d="M364.03,-215.7C359.37,-206.88 353.63,-196.03 348.58,-186.47"/>
<polygon fill="#757575" stroke="#757575" points="350.85,-185.53 345.41,-180.48 346.52,-187.82 350.85,-185.53"/>
</g>
<!-- n23 -->
<g id="node24" class="node">
<title>n23</title>
<path fill="#f5f5f5" stroke="#424242" d="M484.17,-252C484.17,-252 454.17,-252 454.17,-252 448.17,-252 442.17,-246 442.17,-240 442.17,-240 442.17,-228 442.17,-228 442.17,-222 448.17,-216 454.17,-216 454.17,-216 484.17,-216 484.17,-216 490.17,-216 496.17,-222 496.17,-228 496.17,-228 496.17,-240 496.17,-240 496.17,-246 490.17,-252 484.17,-252"/>
<text xml:space="preserve" text-anchor="middle" x="469.17" y="-230.88" font-family="Courier,monospace" font-size="10.00">Target</text>
</g>
<!-- n22&#45;&gt;n23 -->
<g id="edge21" class="edge">
<title>n22&#45;&gt;n23</title>
<path fill="none" stroke="#757575" d="M541.44,-287.7C528.87,-278.53 513.27,-267.16 499.79,-257.33"/>
<polygon fill="#757575" stroke="#757575" points="501.29,-255.38 494.19,-253.24 498.4,-259.34 501.29,-255.38"/>
</g>
<!-- n26 -->
<g id="node27" class="node">
<title>n26</title>
<path fill="#f5f5f5" stroke="#424242" d="M580.17,-252C580.17,-252 550.17,-252 550.17,-252 544.17,-252 538.17,-246 538.17,-240 538.17,-240 538.17,-228 538.17,-228 538.17,-222 544.17,-216 550.17,-216 550.17,-216 580.17,-216 580.17,-216 586.17,-216 592.17,-222 592.17,-228 592.17,-228 592.17,-240 592.17,-240 592.17,-246 586.17,-252 580.17,-252"/>
<text xml:space="preserve" text-anchor="middle" x="565.17" y="-230.88" font-family="Courier,monospace" font-size="10.00">Source</text>
</g>
<!-- n22&#45;&gt;n26 -->
<g id="edge23" class="edge">
<title>n22&#45;&gt;n26</title>
<path fill="none" stroke="#757575" d="M565.17,-287.7C565.17,-279.47 565.17,-269.48 565.17,-260.42"/>
<polygon fill="#757575" stroke="#757575" points="567.62,-260.62 565.17,-253.62 562.72,-260.62 567.62,-260.62"/>
</g>
<!-- n24 -->
<g id="node25" class="node">
<title>n24</title>
<ellipse fill="#ffe0b2" stroke="#424242" cx="457.17" cy="-162" rx="75.87" ry="18"/>
<text xml:space="preserve" text-anchor="middle" x="457.17" y="-158.88" font-family="Courier,monospace" font-size="10.00">LValueDot field= y</text>
</g>
<!-- n23&#45;&gt;n24 -->
<g id="edge20" class="edge">
<title>n23&#45;&gt;n24</title>
<path fill="none" stroke="#757575" d="M466.21,-215.7C464.8,-207.47 463.08,-197.48 461.53,-188.42"/>
<polygon fill="#757575" stroke="#757575" points="463.96,-188.08 460.36,-181.6 459.13,-188.91 463.96,-188.08"/>
</g>
<!-- n25 -->
<g id="node26" class="node">
<title>n25</title>
<ellipse fill="#f3e5f5" stroke="#424242" cx="457.17" cy="-90" rx="50.17" ry="18"/>
<text xml:space="preserve" text-anchor="middle" x="457.17" y="-86.88" font-family="Courier,monospace" font-size="10.00">LValueID &#160;p</text>
</g>
<!-- n24&#45;&gt;n25 -->
<g id="edge19" class="edge">
<title>n24&#45;&gt;n25</title>
<path fill="none" stroke="#757575" d="M457.17,-143.7C457.17,-135.47 457.17,-125.48 457.17,-116.42"/>
<polygon fill="#757575" stroke="#757575" points="459.62,-116.62 457.17,-109.62 454.72,-116.62 459.62,-116.62"/>
</g>
<!-- n27 -->
<g id="node28" class="node">
<title>n27</title>
<ellipse fill="#fff8e1" stroke="#424242" cx="578.17" cy="-162" rx="27" ry="18"/>
<text xml:space="preserve" text-anchor="middle" x="578.17" y="-158.88" font-family="Courier,monospace" font-size="10.00">5</text>
</g>
<!-- n26&#45;&gt;n27 -->
<g id="edge22" class="edge">
<title>n26&#45;&gt;n27</title>
<path fill="none" stroke="#757575" d="M568.39,-215.7C569.91,-207.47 571.77,-197.48 573.45,-188.42"/>
<polygon fill="#757575" stroke="#757575" points="575.85,-188.92 574.72,-181.59 571.03,-188.03 575.85,-188.92"/>
</g>
<!-- n29 -->
<g id="node30" class="node">
<title>n29</title>
<path fill="#f5f5f5" stroke="#424242" d="M652.17,-252C652.17,-252 622.17,-252 622.17,-252 616.17,-252 610.17,-246 610.17,-240 610.17,-240 610.17,-228 610.17,-228 610.17,-222 616.17,-216 622.17,-216 622.17,-216 652.17,-216 652.17,-216 658.17,-216 664.17,-222 664.17,-228 664.17,-228 664.17,-240 664.17,-240 664.17,-246 658.17,-252 652.17,-252"/>
<text xml:space="preserve" text-anchor="middle" x="637.17" y="-230.88" font-family="Courier,monospace" font-size="10.00">Target</text>
</g>
<!-- n28&#45;&gt;n29 -->
<g id="edge26" class="edge">
<title>n28&#45;&gt;n29</title>
<path fill="none" stroke="#757575" d="M637.17,-287.7C637.17,-279.47 637.17,-269.48 637.17,-260.42"/>
<polygon fill="#757575" stroke="#757575" points="639.62,-260.62 637.17,-253.62 634.72,-260.62 639.62,-260.62"/>
</g>
<!-- n31 -->
<g id="node32" class="node">
<title>n31</title>
<path fill="#f5f5f5" stroke="#424242" d="M724.17,-252C724.17,-252 694.17,-252 694.17,-252 688.17,-252 682.17,-246 682.17,-240 682.17,-240 682.17,-228 682.17,-228 682.17,-222 688.17,-216 694.17,-216 694.17,-216 724.17,-216 724.17,-216 730.17,-216 736.17,-222 736.17,-228 736.17,-228 736.17,-240 736.17,-240 736.17,-246 730.17,-252 724.17,-252"/>
<text xml:space="preserve" text-anchor="middle" x="709.17" y="-230.88" font-family="Courier,monospace" font-size="10.00">Source</text>
</g>
<!-- n28&#45;&gt;n31 -->
<g id="edge32" class="edge">
<title>n28&#45;&gt;n31</title>
<path fill="none" stroke="#757575" d="M654.97,-287.7C664.14,-278.78 675.46,-267.78 685.37,-258.14"/>
<polygon fill="#757575" stroke="#757575" points="686.93,-260.04 690.25,-253.4 683.52,-256.52 686.93,-260.04"/>
</g>
<!-- n30 -->
<g id="node31" class="node">
<title>n30</title>
<ellipse fill="#f3e5f5" stroke="#424242" cx="673.17" cy="-162" rx="50.17" ry="18"/>
<text xml:space="preserve" text-anchor="middle" x="673.17" y="-158.88" font-family="Courier,monospace" font-size="10.00">LValueID &#160;t</text>
</g>
<!-- n29&#45;&gt;n30 -->
<g id="edge25" class="edge">
<title>n29&#45;&gt;n30</title>
<path fill="none" stroke="#757575" d="M646.07,-215.7C650.43,-207.22 655.76,-196.86 660.53,-187.58"/>
<polygon fill="#757575" stroke="#757575" points="662.66,-188.8 663.68,-181.45 658.3,-186.55 662.66,-188.8"/>
</g>
<!-- n32 -->
<g id="node33" class="node">
<title>n32</title>
<path fill="#ffe0b2" stroke="#424242" d="M765.53,-174.46C765.53,-174.46 752.21,-167.54 752.21,-167.54 746.88,-164.77 746.88,-159.23 752.21,-156.46 752.21,-156.46 765.53,-149.54 765.53,-149.54 770.85,-146.77 781.5,-146.77 786.82,-149.54 786.82,-149.54 800.14,-156.46 800.14,-156.46 805.46,-159.23 805.46,-164.77 800.14,-167.54 800.14,-167.54 786.82,-174.46 786.82,-174.46 781.5,-177.23 770.85,-177.23 765.53,-174.46"/>
<text xml:space="preserve" text-anchor="middle" x="776.17" y="-158.88" font-family="Courier,monospace" font-size="10.00">Op +</text>
</g>
<!-- n31&#45;&gt;n32 -->
<g id="edge31" class="edge">
<title>n31&#45;&gt;n32</title>
<path fill="none" stroke="#757575" d="M725.73,-215.7C735.97,-205 749.07,-191.32 759.35,-180.57"/>
<polygon fill="#757575" stroke="#757575" points="760.92,-182.47 763.99,-175.72 757.38,-179.09 760.92,-182.47"/>
</g>
<!-- n33 -->
<g id="node34" class="node">
<title>n33</title>
<path fill="#ffe0b2" stroke="#424242" d="M679.49,-105.24C679.49,-105.24 626.7,-92.76 626.7,-92.76 620.86,-91.38 620.86,-88.62 626.7,-87.24 626.7,-87.24 679.49,-74.76 679.49,-74.76 685.33,-73.38 697.01,-73.38 702.85,-74.76 702.85,-74.76 755.64,-87.24 755.64,-87.24 761.48,-88.62 761.48,-91.38 755.64,-92.76 755.64,-92.76 702.85,-105.24 702.85,-105.24 697.01,-106.62 685.33,-106.62 679.49,-105.24"/>
<text xml:space="preserve" text-anchor="middle" x="691.17" y="-86.88" font-family="Courier,monospace" font-size="10.00">Dot field= x</text>
</g>
<!-- n32&#45;&gt;n33 -->
<g id="edge28" class="edge">
<title>n32&#45;&gt;n33</title>
<path fill="none" stroke="#757575" d="M763.26,-150.37C750.18,-139.59 729.66,-122.7 713.86,-109.68"/>
<polygon fill="#757575" stroke="#757575" points="715.54,-107.89 708.58,-105.33 712.42,-111.67 715.54,-107.89"/>
</g>
<!-- n35 -->
<g id="node36" class="node">
<title>n35</title>
<path fill="#ffe0b2" stroke="#424242" d="M849.49,-105.24C849.49,-105.24 796.7,-92.76 796.7,-92.76 790.86,-91.38 790.86,-88.62 796.7,-87.24 796.7,-87.24 849.49,-74.76 849.49,-74.76 855.33,-73.38 867.01,-73.38 872.85,-74.76 872.85,-74.76 925.64,-87.24 925.64,-87.24 931.48,-88.62 931.48,-91.38 925.64,-92.76 925.64,-92.76 872.85,-105.24 872.85,-105.24 867.01,-106.62 855.33,-106.62 849.49,-105.24"/>
<text xml:space="preserve" text-anchor="middle" x="861.17" y="-86.88" font-family="Courier,monospace" font-size="10.00">Dot field= y</text>
</g>
<!-- n32&#45;&gt;n35 -->
<g id="edge30" class="edge">
<title>n32&#45;&gt;n35</title>
<path fill="none" stroke="#757575" d="M789.08,-150.37C802.17,-139.59 822.68,-122.7 838.49,-109.68"/>
<polygon fill="#757575" stroke="#757575" points="839.92,-111.67 843.77,-105.33 836.81,-107.89 839.92,-111.67"/>
</g>
<!-- n34 -->
<g id="node35" class="node">
<title>n34</title>
<ellipse fill="#e8f5e9" stroke="#424242" cx="691.17" cy="-18" rx="27" ry="18"/>
<text xml:space="preserve" text-anchor="middle" x="691.17" y="-14.88" font-family="Courier,monospace" font-size="10.00">Id p</text>
</g>
<!-- n33&#45;&gt;n34 -->
<g id="edge27" class="edge">
<title>n33&#45;&gt;n34</title>
<path fill="none" stroke="#757575" d="M691.17,-71.7C691.17,-63.47 691.17,-53.48 691.17,-44.42"/>
<polygon fill="#757575" stroke="#757575" points="693.62,-44.62 691.17,-37.62 688.72,-44.62 693.62,-44.62"/>
</g>
<!-- n36 -->
<g id="node37" class="node">
<title>n36</title>
<ellipse fill="#e8f5e9" stroke="#424242" cx="861.17" cy="-18" rx="27" ry="18"/>
<text xml:space="preserve" text-anchor="middle" x="861.17" y="-14.88" font-family="Courier,monospace" font-size="10.00">Id p</text>
</g>
<!-- n35&#45;&gt;n36 -->
<g id="edge29" class="edge">
<title>n35&#45;&gt;n36</title>
<path fill="none" stroke="#757575" d="M861.17,-71.7C861.17,-63.47 861.17,-53.48 861.17,-44.42"/>
<polygon fill="#757575" stroke="#757575" points="863.62,-44.62 861.17,-37.62 858.72,-44.62 863.62,-44.62"/>
</g>
<!-- n38 -->
<g id="node39" class="node">
<title>n38</title>
<ellipse fill="#e8f5e9" stroke="#424242" cx="781.17" cy="-234" rx="27" ry="18"/>
<text xml:space="preserve" text-anchor="middle" x="781.17" y="-230.88" font-family="Courier,monospace" font-size="10.00">Id t</text>
</g>
<!-- n37&#45;&gt;n38 -->
<g id="edge34" class="edge">
<title>n37&#45;&gt;n38</title>
<path fill="none" stroke="#757575" d="M726.97,-287.7C737.14,-277.81 749.93,-265.38 760.53,-255.07"/>
<polygon fill="#757575" stroke="#757575" points="762.09,-256.97 765.4,-250.33 758.67,-253.46 762.09,-256.97"/>
</g>
<!-- n40 -->
<g id="node41" class="node">
<title>n40</title>
<path fill="#f5f5f5" stroke="#424242" d="M1031.17,-396C1031.17,-396 1001.17,-396 1001.17,-396 995.17,-396 989.17,-390 989.17,-384 989.17,-384 989.17,-372 989.17,-372 989.17,-366 995.17,-360 1001.17,-360 1001.17,-360 1031.17,-360 1031.17,-360 1037.17,-360 1043.17,-366 1043.17,-372 1043.17,-372 1043.17,-384 1043.17,-384 1043.17,-390 1037.17,-396 1031.17,-396"/>
<text xml:space="preserve" text-anchor="middle" x="1016.17" y="-374.88" font-family="Courier,monospace" font-size="10.00">Params</text>
</g>
<!-- n39&#45;&gt;n40 -->
<g id="edge38" class="edge">
<title>n39&#45;&gt;n40</title>
<path fill="none" stroke="#757575" d="M1070.38,-431.7C1061.2,-422.78 1049.89,-411.78 1039.98,-402.14"/>
<polygon fill="#757575" stroke="#757575" points="1041.83,-400.52 1035.1,-397.4 1038.41,-404.04 1041.83,-400.52"/>
</g>
<!-- n41 -->
<g id="node42" class="node">
<title>n41</title>
<path fill="#f5f5f5" stroke="#424242" d="M1103.17,-396C1103.17,-396 1073.17,-396 1073.17,-396 1067.17,-396 1061.17,-390 1061.17,-384 1061.17,-384 1061.17,-372 1061.17,-372 1061.17,-366 1067.17,-360 1073.17,-360 1073.17,-360 1103.17,-360 1103.17,-360 1109.17,-360 1115.17,-366 1115.17,-372 1115.17,-372 1115.17,-384 1115.17,-384 1115.17,-390 1109.17,-396 1103.17,-396"/>
<text xml:space="preserve" text-anchor="middle" x="1088.17" y="-374.88" font-family="Courier,monospace" font-size="10.00">Locals</text>
</g>
<!-- n39&#45;&gt;n41 -->
<g id="edge42" class="edge">
<title>n39&#45;&gt;n41</title>
<path fill="none" stroke="#757575" d="M1088.17,-431.7C1088.17,-423.47 1088.17,-413.48 1088.17,-404.42"/>
<polygon fill="#757575" stroke="#757575" points="1090.62,-404.62 1088.17,-397.62 1085.72,-404.62 1090.62,-404.62"/>
</g>
<!-- n45 -->
<g id="node46" class="node">
<title>n45</title>
<path fill="#f5f5f5" stroke="#424242" d="M1258.17,-396C1258.17,-396 1200.17,-396 1200.17,-396 1194.17,-396 1188.17,-390 1188.17,-384 1188.17,-384 1188.17,-372 1188.17,-372 1188.17,-366 1194.17,-360 1200.17,-360 1200.17,-360 1258.17,-360 1258.17,-360 1264.17,-360 1270.17,-366 1270.17,-372 1270.17,-372 1270.17,-384 1270.17,-384 1270.17,-390 1264.17,-396 1258.17,-396"/>
<text xml:space="preserve" text-anchor="middle" x="1229.17" y="-374.88" font-family="Courier,monospace" font-size="10.00">Return Type</text>
</g>
<!-- n39&#45;&gt;n45 -->
<g id="edge44" class="edge">
<title>n39&#45;&gt;n45</title>
<path fill="none" stroke="#757575" d="M1123.39,-431.52C1142.63,-421.97 1166.59,-410.07 1186.84,-400.01"/>
<polygon fill="#757575" stroke="#757575" points="1187.87,-402.24 1193.05,-396.93 1185.69,-397.85 1187.87,-402.24"/>
</g>
<!-- n47 -->
<g id="node48" class="node">
<title>n47</title>
<path fill="#f5f5f5" stroke="#424242" d="M1946.17,-396C1946.17,-396 1916.17,-396 1916.17,-396 1910.17,-396 1904.17,-390 1904.17,-384 1904.17,-384 1904.17,-372 1904.17,-372 1904.17,-366 1910.17,-360 1916.17,-360 1916.17,-360 1946.17,-360 1946.17,-360 1952.17,-360 1958.17,-366 1958.17,-372 1958.17,-372 1958.17,-384 1958.17,-384 1958.17,-390 1952.17,-396 1946.17,-396"/>
<text xml:space="preserve" text-anchor="middle" x="1931.17" y="-374.88" font-family="Courier,monospace" font-size="10.00">Body</text>
</g>
<!-- n39&#45;&gt;n47 -->
<g id="edge92" class="edge">
<title>n39&#45;&gt;n47</title>
<path fill="none" stroke="#757575" d="M1123.59,-446.06C1261.02,-434.65 1758.21,-393.36 1895.72,-381.94"/>
<polygon fill="#757575" stroke="#757575" points="1895.59,-384.41 1902.36,-381.39 1895.19,-379.53 1895.59,-384.41"/>
</g>
<!-- n42 -->
<g id="node43" class="node">
<title>n42</title>
<ellipse fill="#f3e5f5" stroke="#424242" cx="841.17" cy="-306" rx="86.88" ry="18"/>
<text xml:space="preserve" text-anchor="middle" x="841.17" y="-302.88" font-family="Courier,monospace" font-size="10.00">Decl struct &#160;Pair &#160;ex</text>
</g>
<!-- n41&#45;&gt;n42 -->
<g id="edge39" class="edge">
<title>n41&#45;&gt;n42</title>
<path fill="none" stroke="#757575" d="M1060.89,-363.44C1057.98,-362.2 1055.04,-361.02 1052.17,-360 1006,-343.48 952.38,-330.08 910.75,-320.89"/>
<polygon fill="#757575" stroke="#757575" points="911.43,-318.53 904.07,-319.43 910.39,-323.32 911.43,-318.53"/>
</g>
<!-- n43 -->
<g id="node44" class="node">
<title>n43</title>
<ellipse fill="#f3e5f5" stroke="#424242" cx="1011.17" cy="-306" rx="64.86" ry="18"/>
<text xml:space="preserve" text-anchor="middle" x="1011.17" y="-302.88" font-family="Courier,monospace" font-size="10.00">Decl int &#160;myint</text>
</g>
<!-- n41&#45;&gt;n43 -->
<g id="edge40" class="edge">
<title>n41&#45;&gt;n43</title>
<path fill="none" stroke="#757575" d="M1069.14,-359.7C1059.01,-350.49 1046.45,-339.07 1035.61,-329.21"/>
<polygon fill="#757575" stroke="#757575" points="1037.4,-327.54 1030.58,-324.64 1034.11,-331.16 1037.4,-327.54"/>
</g>
<!-- n44 -->
<g id="node45" class="node">
<title>n44</title>
<ellipse fill="#f3e5f5" stroke="#424242" cx="1166.17" cy="-306" rx="72.2" ry="18"/>
<text xml:space="preserve" text-anchor="middle" x="1166.17" y="-302.88" font-family="Courier,monospace" font-size="10.00">Decl bool &#160;mybool</text>
</g>
<!-- n41&#45;&gt;n44 -->
<g id="edge41" class="edge">
<title>n41&#45;&gt;n44</title>
<path fill="none" stroke="#757575" d="M1107.45,-359.7C1117.64,-350.56 1130.25,-339.24 1141.18,-329.43"/>
<polygon fill="#757575" stroke="#757575" points="1142.68,-331.37 1146.26,-324.87 1139.41,-327.73 1142.68,-331.37"/>
</g>
<!-- n46 -->
<g id="node47" class="node">
<title>n46</title>
<ellipse fill="#fff8e1" stroke="#424242" cx="1283.17" cy="-306" rx="27" ry="18"/>
<text xml:space="preserve" text-anchor="middle" x="1283.17" y="-302.88" font-family="Courier,monospace" font-size="10.00">void</text>
</g>
<!-- n45&#45;&gt;n46 -->
<g id="edge43" class="edge">
<title>n45&#45;&gt;n46</title>
<path fill="none" stroke="#757575" d="M1242.52,-359.7C1249.73,-350.35 1258.7,-338.73 1266.37,-328.78"/>
<polygon fill="#757575" stroke="#757575" points="1268.18,-330.44 1270.52,-323.4 1264.31,-327.45 1268.18,-330.44"/>
</g>
<!-- n48 -->
<g id="node49" class="node">
<title>n48</title>
<path fill="#f5f5f5" stroke="#424242" d="M1370.17,-324C1370.17,-324 1340.17,-324 1340.17,-324 1334.17,-324 1328.17,-318 1328.17,-312 1328.17,-312 1328.17,-300 1328.17,-300 1328.17,-294 1334.17,-288 1340.17,-288 1340.17,-288 1370.17,-288 1370.17,-288 1376.17,-288 1382.17,-294 1382.17,-300 1382.17,-300 1382.17,-312 1382.17,-312 1382.17,-318 1376.17,-324 1370.17,-324"/>
<text xml:space="preserve" text-anchor="middle" x="1355.17" y="-302.88" font-family="Courier,monospace" font-size="10.00">Assign</text>
</g>
<!-- n47&#45;&gt;n48 -->
<g id="edge50" class="edge">
<title>n47&#45;&gt;n48</title>
<path fill="none" stroke="#757575" d="M1903.71,-374.4C1831.03,-367.42 1627.65,-347.21 1459.17,-324 1436.34,-320.85 1410.79,-316.69 1390.72,-313.26"/>
<polygon fill="#757575" stroke="#757575" points="1391.29,-310.88 1383.98,-312.11 1390.46,-315.71 1391.29,-310.88"/>
</g>
<!-- n54 -->
<g id="node55" class="node">
<title>n54</title>
<path fill="#f5f5f5" stroke="#424242" d="M1510.17,-324C1510.17,-324 1480.17,-324 1480.17,-324 1474.17,-324 1468.17,-318 1468.17,-312 1468.17,-312 1468.17,-300 1468.17,-300 1468.17,-294 1474.17,-288 1480.17,-288 1480.17,-288 1510.17,-288 1510.17,-288 1516.17,-288 1522.17,-294 1522.17,-300 1522.17,-300 1522.17,-312 1522.17,-312 1522.17,-318 1516.17,-324 1510.17,-324"/>
<text xml:space="preserve" text-anchor="middle" x="1495.17" y="-302.88" font-family="Courier,monospace" font-size="10.00">Assign</text>
</g>
<!-- n47&#45;&gt;n54 -->
<g id="edge55" class="edge">
<title>n47&#45;&gt;n54</title>
<path fill="none" stroke="#757575" d="M1903.9,-372.62C1828.2,-360.47 1615.49,-326.32 1530.71,-312.71"/>
<polygon fill="#757575" stroke="#757575" points="1531.23,-310.31 1523.93,-311.62 1530.45,-315.15 1531.23,-310.31"/>
</g>
<!-- n59 -->
<g id="node60" class="node">
<title>n59</title>
<path fill="#f5f5f5" stroke="#424242" d="M1753.17,-324C1753.17,-324 1723.17,-324 1723.17,-324 1717.17,-324 1711.17,-318 1711.17,-312 1711.17,-312 1711.17,-300 1711.17,-300 1711.17,-294 1717.17,-288 1723.17,-288 1723.17,-288 1753.17,-288 1753.17,-288 1759.17,-288 1765.17,-294 1765.17,-300 1765.17,-300 1765.17,-312 1765.17,-312 1765.17,-318 1759.17,-324 1753.17,-324"/>
<text xml:space="preserve" text-anchor="middle" x="1738.17" y="-302.88" font-family="Courier,monospace" font-size="10.00">Assign</text>
</g>
<!-- n47&#45;&gt;n59 -->
<g id="edge61" class="edge">
<title>n47&#45;&gt;n59</title>
<path fill="none" stroke="#757575" d="M1903.93,-367.12C1869.69,-354.7 1810.85,-333.36 1773.27,-319.73"/>
<polygon fill="#757575" stroke="#757575" points="1774.43,-317.54 1767.01,-317.46 1772.76,-322.15 1774.43,-317.54"/>
</g>
<!-- n65 -->
<g id="node66" class="node">
<title>n65</title>
<path fill="#f5f5f5" stroke="#424242" d="M1946.17,-324C1946.17,-324 1916.17,-324 1916.17,-324 1910.17,-324 1904.17,-318 1904.17,-312 1904.17,-312 1904.17,-300 1904.17,-300 1904.17,-294 1910.17,-288 1916.17,-288 1916.17,-288 1946.17,-288 1946.17,-288 1952.17,-288 1958.17,-294 1958.17,-300 1958.17,-300 1958.17,-312 1958.17,-312 1958.17,-318 1952.17,-324 1946.17,-324"/>
<text xml:space="preserve" text-anchor="middle" x="1931.17" y="-302.88" font-family="Courier,monospace" font-size="10.00">Assign</text>
</g>
<!-- n47&#45;&gt;n65 -->
<g id="edge67" class="edge">
<title>n47&#45;&gt;n65</title>
<path fill="none" stroke="#757575" d="M1931.17,-359.7C1931.17,-351.47 1931.17,-341.48 1931.17,-332.42"/>
<polygon fill="#757575" stroke="#757575" points="1933.62,-332.62 1931.17,-325.62 1928.72,-332.62 1933.62,-332.62"/>
</g>
<!-- n71 -->
<g id="node72" class="node">
<title>n71</title>
<path fill="#f5f5f5" stroke="#424242" d="M2105.17,-324C2105.17,-324 2075.17,-324 2075.17,-324 2069.17,-324 2063.17,-318 2063.17,-312 2063.17,-312 2063.17,-300 2063.17,-300 2063.17,-294 2069.17,-288 2075.17,-288 2075.17,-288 2105.17,-288 2105.17,-288 2111.17,-288 2117.17,-294 2117.17,-300 2117.17,-300 2117.17,-312 2117.17,-312 2117.17,-318 2111.17,-324 2105.17,-324"/>
<text xml:space="preserve" text-anchor="middle" x="2090.17" y="-302.88" font-family="Courier,monospace" font-size="10.00">Assign</text>
</g>
<!-- n47&#45;&gt;n71 -->
<g id="edge74" class="edge">
<title>n47&#45;&gt;n71</title>
<path fill="none" stroke="#757575" d="M1958.51,-364.97C1985.32,-353.16 2026.31,-335.11 2055.43,-322.3"/>
<polygon fill="#757575" stroke="#757575" points="2056.13,-324.67 2061.55,-319.6 2054.15,-320.18 2056.13,-324.67"/>
</g>
<!-- n78 -->
<g id="node79" class="node">
<title>n78</title>
<path fill="#f5f5f5" stroke="#424242" d="M2316.17,-324C2316.17,-324 2286.17,-324 2286.17,-324 2280.17,-324 2274.17,-318 2274.17,-312 2274.17,-312 2274.17,-300 2274.17,-300 2274.17,-294 2280.17,-288 2286.17,-288 2286.17,-288 2316.17,-288 2316.17,-288 2322.17,-288 2328.17,-294 2328.17,-300 2328.17,-300 2328.17,-312 2328.17,-312 2328.17,-318 2322.17,-324 2316.17,-324"/>
<text xml:space="preserve" text-anchor="middle" x="2301.17" y="-302.88" font-family="Courier,monospace" font-size="10.00">Branch</text>
</g>
<!-- n47&#45;&gt;n78 -->
<g id="edge87" class="edge">
<title>n47&#45;&gt;n78</title>
<path fill="none" stroke="#757575" d="M1958.38,-371.85C2024.18,-359.4 2191.94,-327.67 2265.59,-313.73"/>
<polygon fill="#757575" stroke="#757575" points="2265.77,-316.19 2272.19,-312.48 2264.85,-311.38 2265.77,-316.19"/>
</g>
<!-- n91 -->
<g id="node92" class="node">
<title>n91</title>
<path fill="#f5f5f5" stroke="#424242" d="M2388.17,-324C2388.17,-324 2358.17,-324 2358.17,-324 2352.17,-324 2346.17,-318 2346.17,-312 2346.17,-312 2346.17,-300 2346.17,-300 2346.17,-294 2352.17,-288 2358.17,-288 2358.17,-288 2388.17,-288 2388.17,-288 2394.17,-288 2400.17,-294 2400.17,-300 2400.17,-300 2400.17,-312 2400.17,-312 2400.17,-318 2394.17,-324 2388.17,-324"/>
<text xml:space="preserve" text-anchor="middle" x="2373.17" y="-302.88" font-family="Courier,monospace" font-size="10.00">Delete</text>
</g>
<!-- n47&#45;&gt;n91 -->
<g id="edge90" class="edge">
<title>n47&#45;&gt;n91</title>
<path fill="none" stroke="#757575" d="M1958.37,-376.35C2024.55,-374.15 2198.71,-364.64 2337.17,-324 2337.45,-323.92 2337.72,-323.84 2338,-323.75"/>
<polygon fill="#757575" stroke="#757575" points="2338.8,-326.07 2344.58,-321.41 2337.16,-321.45 2338.8,-326.07"/>
</g>
<!-- n94 -->
<g id="node95" class="node">
<title>n94</title>
<path fill="#f5f5f5" stroke="#424242" d="M2460.17,-324C2460.17,-324 2430.17,-324 2430.17,-324 2424.17,-324 2418.17,-318 2418.17,-312 2418.17,-312 2418.17,-300 2418.17,-300 2418.17,-294 2424.17,-288 2430.17,-288 2430.17,-288 2460.17,-288 2460.17,-288 2466.17,-288 2472.17,-294 2472.17,-300 2472.17,-300 2472.17,-312 2472.17,-312 2472.17,-318 2466.17,-324 2460.17,-324"/>
<text xml:space="preserve" text-anchor="middle" x="2445.17" y="-302.88" font-family="Courier,monospace" font-size="10.00">Return</text>
</g>
<!-- n47&#45;&gt;n94 -->
<g id="edge91" class="edge">
<title>n47&#45;&gt;n94</title>
<path fill="none" stroke="#757575" d="M1958.46,-377.09C2032.48,-376.68 2242.67,-371.12 2409.17,-324 2409.45,-323.92 2409.72,-323.84 2410,-323.76"/>
<polygon fill="#757575" stroke="#757575" points="2410.79,-326.08 2416.59,-321.46 2409.17,-321.45 2410.79,-326.08"/>
</g>
<!-- n49 -->
<g id="node50" class="node">
<title>n49</title>
<path fill="#f5f5f5" stroke="#424242" d="M1216.17,-252C1216.17,-252 1186.17,-252 1186.17,-252 1180.17,-252 1174.17,-246 1174.17,-240 1174.17,-240 1174.17,-228 1174.17,-228 1174.17,-222 1180.17,-216 1186.17,-216 1186.17,-216 1216.17,-216 1216.17,-216 1222.17,-216 1228.17,-222 1228.17,-228 1228.17,-228 1228.17,-240 1228.17,-240 1228.17,-246 1222.17,-252 1216.17,-252"/>
<text xml:space="preserve" text-anchor="middle" x="1201.17" y="-230.88" font-family="Courier,monospace" font-size="10.00">Target</text>
</g>
<!-- n48&#45;&gt;n49 -->
<g id="edge46" class="edge">
<title>n48&#45;&gt;n49</title>
<path fill="none" stroke="#757575" d="M1327.68,-291.95C1324.81,-290.61 1321.94,-289.27 1319.17,-288 1291.32,-275.17 1259.6,-260.95 1236.07,-250.47"/>
<polygon fill="#757575" stroke="#757575" points="1237.2,-248.29 1229.81,-247.68 1235.21,-252.76 1237.2,-248.29"/>
</g>
<!-- n51 -->
<g id="node52" class="node">
<title>n51</title>
<path fill="#f5f5f5" stroke="#424242" d="M1323.17,-252C1323.17,-252 1293.17,-252 1293.17,-252 1287.17,-252 1281.17,-246 1281.17,-240 1281.17,-240 1281.17,-228 1281.17,-228 1281.17,-222 1287.17,-216 1293.17,-216 1293.17,-216 1323.17,-216 1323.17,-216 1329.17,-216 1335.17,-222 1335.17,-228 1335.17,-228 1335.17,-240 1335.17,-240 1335.17,-246 1329.17,-252 1323.17,-252"/>
<text xml:space="preserve" text-anchor="middle" x="1308.17" y="-230.88" font-family="Courier,monospace" font-size="10.00">Source</text>
</g>
<!-- n48&#45;&gt;n51 -->
<g id="edge49" class="edge">
<title>n48&#45;&gt;n51</title>
<path fill="none" stroke="#757575" d="M1343.55,-287.7C1337.75,-279.05 1330.63,-268.45 1324.31,-259.03"/>
<polygon fill="#757575" stroke="#757575" points="1326.44,-257.81 1320.5,-253.36 1322.37,-260.54 1326.44,-257.81"/>
</g>
<!-- n50 -->
<g id="node51" class="node">
<title>n50</title>
<ellipse fill="#f3e5f5" stroke="#424242" cx="1167.17" cy="-162" rx="53.84" ry="18"/>
<text xml:space="preserve" text-anchor="middle" x="1167.17" y="-158.88" font-family="Courier,monospace" font-size="10.00">LValueID &#160;ex</text>
</g>
<!-- n49&#45;&gt;n50 -->
<g id="edge45" class="edge">
<title>n49&#45;&gt;n50</title>
<path fill="none" stroke="#757575" d="M1192.77,-215.7C1188.65,-207.22 1183.62,-196.86 1179.11,-187.58"/>
<polygon fill="#757575" stroke="#757575" points="1181.4,-186.69 1176.14,-181.47 1177,-188.83 1181.4,-186.69"/>
</g>
<!-- n52 -->
<g id="node53" class="node">
<title>n52</title>
<ellipse fill="#fff8e1" stroke="#424242" cx="1266.17" cy="-162" rx="27" ry="18"/>
<text xml:space="preserve" text-anchor="middle" x="1266.17" y="-158.88" font-family="Courier,monospace" font-size="10.00">new</text>
</g>
<!-- n51&#45;&gt;n52 -->
<g id="edge48" class="edge">
<title>n51&#45;&gt;n52</title>
<path fill="none" stroke="#757575" d="M1297.79,-215.7C1292.45,-206.79 1285.86,-195.81 1280.08,-186.19"/>
<polygon fill="#757575" stroke="#757575" points="1282.34,-185.18 1276.64,-180.44 1278.14,-187.71 1282.34,-185.18"/>
</g>
<!-- n53 -->
<g id="node54" class="node">
<title>n53</title>
<ellipse fill="#e8f5e9" stroke="#424242" cx="1266.17" cy="-90" rx="35.49" ry="18"/>
<text xml:space="preserve" text-anchor="middle" x="1266.17" y="-86.88" font-family="Courier,monospace" font-size="10.00">Id Pair</text>
</g>
<!-- n52&#45;&gt;n53 -->
<g id="edge47" class="edge">
<title>n52&#45;&gt;n53</title>
<path fill="none" stroke="#757575" d="M1266.17,-143.7C1266.17,-135.47 1266.17,-125.48 1266.17,-116.42"/>
<polygon fill="#757575" stroke="#757575" points="1268.62,-116.62 1266.17,-109.62 1263.72,-116.62 1268.62,-116.62"/>
</g>
<!-- n55 -->
<g id="node56" class="node">
<title>n55</title>
<path fill="#f5f5f5" stroke="#424242" d="M1416.17,-252C1416.17,-252 1386.17,-252 1386.17,-252 1380.17,-252 1374.17,-246 1374.17,-240 1374.17,-240 1374.17,-228 1374.17,-228 1374.17,-222 1380.17,-216 1386.17,-216 1386.17,-216 1416.17,-216 1416.17,-216 1422.17,-216 1428.17,-222 1428.17,-228 1428.17,-228 1428.17,-240 1428.17,-240 1428.17,-246 1422.17,-252 1416.17,-252"/>
<text xml:space="preserve" text-anchor="middle" x="1401.17" y="-230.88" font-family="Courier,monospace" font-size="10.00">Target</text>
</g>
<!-- n54&#45;&gt;n55 -->
<g id="edge52" class="edge">
<title>n54&#45;&gt;n55</title>
<path fill="none" stroke="#757575" d="M1471.94,-287.7C1459.62,-278.53 1444.35,-267.16 1431.15,-257.33"/>
<polygon fill="#757575" stroke="#757575" points="1432.76,-255.47 1425.68,-253.25 1429.83,-259.4 1432.76,-255.47"/>
</g>
<!-- n57 -->
<g id="node58" class="node">
<title>n57</title>
<path fill="#f5f5f5" stroke="#424242" d="M1510.17,-252C1510.17,-252 1480.17,-252 1480.17,-252 1474.17,-252 1468.17,-246 1468.17,-240 1468.17,-240 1468.17,-228 1468.17,-228 1468.17,-222 1474.17,-216 1480.17,-216 1480.17,-216 1510.17,-216 1510.17,-216 1516.17,-216 1522.17,-222 1522.17,-228 1522.17,-228 1522.17,-240 1522.17,-240 1522.17,-246 1516.17,-252 1510.17,-252"/>
<text xml:space="preserve" text-anchor="middle" x="1495.17" y="-230.88" font-family="Courier,monospace" font-size="10.00">Source</text>
</g>
<!-- n54&#45;&gt;n57 -->
<g id="edge54" class="edge">
<title>n54&#45;&gt;n57</title>
<path fill="none" stroke="#757575" d="M1495.17,-287.7C1495.17,-279.47 1495.17,-269.48 1495.17,-260.42"/>
<polygon fill="#757575" stroke="#757575" points="1497.62,-260.62 1495.17,-253.62 1492.72,-260.62 1497.62,-260.62"/>
</g>
<!-- n56 -->
<g id="node57" class="node">
<title>n56</title>
<ellipse fill="#f3e5f5" stroke="#424242" cx="1380.17" cy="-162" rx="68.53" ry="18"/>
<text xml:space="preserve" text-anchor="middle" x="1380.17" y="-158.88" font-family="Courier,monospace" font-size="10.00">LValueID &#160;mybool</text>
</g>
<!-- n55&#45;&gt;n56 -->
<g id="edge51" class="edge">
<title>n55&#45;&gt;n56</title>
<path fill="none" stroke="#757575" d="M1395.98,-215.7C1393.49,-207.39 1390.46,-197.28 1387.72,-188.14"/>
<polygon fill="#757575" stroke="#757575" points="1390.1,-187.55 1385.74,-181.55 1385.4,-188.96 1390.1,-187.55"/>
</g>
<!-- n58 -->
<g id="node59" class="node">
<title>n58</title>
<ellipse fill="#fff8e1" stroke="#424242" cx="1495.17" cy="-162" rx="28.15" ry="18"/>
<text xml:space="preserve" text-anchor="middle" x="1495.17" y="-158.88" font-family="Courier,monospace" font-size="10.00">false</text>
</g>
<!-- n57&#45;&gt;n58 -->
<g id="edge53" class="edge">
<title>n57&#45;&gt;n58</title>
<path fill="none" stroke="#757575" d="M1495.17,-215.7C1495.17,-207.47 1495.17,-197.48 1495.17,-188.42"/>
<polygon fill="#757575" stroke="#757575" points="1497.62,-188.62 1495.17,-181.62 1492.72,-188.62 1497.62,-188.62"/>
</g>
<!-- n60 -->
<g id="node61" class="node">
<title>n60</title>
<path fill="#f5f5f5" stroke="#424242" d="M1656.17,-252C1656.17,-252 1626.17,-252 1626.17,-252 1620.17,-252 1614.17,-246 1614.17,-240 1614.17,-240 1614.17,-228 1614.17,-228 1614.17,-222 1620.17,-216 1626.17,-216 1626.17,-216 1656.17,-216 1656.17,-216 1662.17,-216 1668.17,-222 1668.17,-228 1668.17,-228 1668.17,-240 1668.17,-240 1668.17,-246 1662.17,-252 1656.17,-252"/>
<text xml:space="preserve" text-anchor="middle" x="1641.17" y="-230.88" font-family="Courier,monospace" font-size="10.00">Target</text>
</g>
<!-- n59&#45;&gt;n60 -->
<g id="edge58" class="edge">
<title>n59&#45;&gt;n60</title>
<path fill="none" stroke="#757575" d="M1714.2,-287.7C1701.49,-278.53 1685.73,-267.16 1672.11,-257.33"/>
<polygon fill="#757575" stroke="#757575" points="1673.55,-255.34 1666.44,-253.23 1670.68,-259.32 1673.55,-255.34"/>
</g>
<!-- n63 -->
<g id="node64" class="node">
<title>n63</title>
<path fill="#f5f5f5" stroke="#424242" d="M1753.17,-252C1753.17,-252 1723.17,-252 1723.17,-252 1717.17,-252 1711.17,-246 1711.17,-240 1711.17,-240 1711.17,-228 1711.17,-228 1711.17,-222 1717.17,-216 1723.17,-216 1723.17,-216 1753.17,-216 1753.17,-216 1759.17,-216 1765.17,-222 1765.17,-228 1765.17,-228 1765.17,-240 1765.17,-240 1765.17,-246 1759.17,-252 1753.17,-252"/>
<text xml:space="preserve" text-anchor="middle" x="1738.17" y="-230.88" font-family="Courier,monospace" font-size="10.00">Source</text>
</g>
<!-- n59&#45;&gt;n63 -->
<g id="edge60" class="edge">
<title>n59&#45;&gt;n63</title>
<path fill="none" stroke="#757575" d="M1738.17,-287.7C1738.17,-279.47 1738.17,-269.48 1738.17,-260.42"/>
<polygon fill="#757575" stroke="#757575" points="1740.62,-260.62 1738.17,-253.62 1735.72,-260.62 1740.62,-260.62"/>
</g>
<!-- n61 -->
<g id="node62" class="node">
<title>n61</title>
<ellipse fill="#ffe0b2" stroke="#424242" cx="1617.17" cy="-162" rx="75.87" ry="18"/>
<text xml:space="preserve" text-anchor="middle" x="1617.17" y="-158.88" font-family="Courier,monospace" font-size="10.00">LValueDot field= x</text>
</g>
<!-- n60&#45;&gt;n61 -->
<g id="edge57" class="edge">
<title>n60&#45;&gt;n61</title>
<path fill="none" stroke="#757575" d="M1635.24,-215.7C1632.39,-207.39 1628.92,-197.28 1625.79,-188.14"/>
<polygon fill="#757575" stroke="#757575" points="1628.12,-187.36 1623.53,-181.54 1623.48,-188.95 1628.12,-187.36"/>
</g>
<!-- n62 -->
<g id="node63" class="node">
<title>n62</title>
<ellipse fill="#f3e5f5" stroke="#424242" cx="1617.17" cy="-90" rx="53.84" ry="18"/>
<text xml:space="preserve" text-anchor="middle" x="1617.17" y="-86.88" font-family="Courier,monospace" font-size="10.00">LValueID &#160;ex</text>
</g>
<!-- n61&#45;&gt;n62 -->
<g id="edge56" class="edge">
<title>n61&#45;&gt;n62</title>
<path fill="none" stroke="#757575" d="M1617.17,-143.7C1617.17,-135.47 1617.17,-125.48 1617.17,-116.42"/>
<polygon fill="#757575" stroke="#757575" points="1619.62,-116.62 1617.17,-109.62 1614.72,-116.62 1619.62,-116.62"/>
</g>
<!-- n64 -->
<g id="node65" class="node">
<title>n64</title>
<ellipse fill="#fff8e1" stroke="#424242" cx="1738.17" cy="-162" rx="27" ry="18"/>
<text xml:space="preserve" text-anchor="middle" x="1738.17" y="-158.88" font-family="Courier,monospace" font-size="10.00">20</text>
</g>
<!-- n63&#45;&gt;n64 -->
<g id="edge59" class="edge">
<title>n63&#45;&gt;n64</title>
<path fill="none" stroke="#757575" d="M1738.17,-215.7C1738.17,-207.47 1738.17,-197.48 1738.17,-188.42"/>
<polygon fill="#757575" stroke="#757575" points="1740.62,-188.62 1738.17,-181.62 1735.72,-188.62 1740.62,-188.62"/>
</g>
<!-- n66 -->
<g id="node67" class="node">
<title>n66</title>
<path fill="#f5f5f5" stroke="#424242" d="M1886.17,-252C1886.17,-252 1856.17,-252 1856.17,-252 1850.17,-252 1844.17,-246 1844.17,-240 1844.17,-240 1844.17,-228 1844.17,-228 1844.17,-222 1850.17,-216 1856.17,-216 1856.17,-216 1886.17,-216 1886.17,-216 1892.17,-216 1898.17,-222 1898.17,-228 1898.17,-228 1898.17,-240 1898.17,-240 1898.17,-246 1892.17,-252 1886.17,-252"/>
<text xml:space="preserve" text-anchor="middle" x="1871.17" y="-230.88" font-family="Courier,monospace" font-size="10.00">Target</text>
</g>
<!-- n65&#45;&gt;n66 -->
<g id="edge64" class="edge">
<title>n65&#45;&gt;n66</title>
<path fill="none" stroke="#757575" d="M1916.34,-287.7C1908.78,-278.88 1899.49,-268.03 1891.29,-258.47"/>
<polygon fill="#757575" stroke="#757575" points="1893.23,-256.97 1886.82,-253.25 1889.51,-260.16 1893.23,-256.97"/>
</g>
<!-- n69 -->
<g id="node70" class="node">
<title>n69</title>
<path fill="#f5f5f5" stroke="#424242" d="M1971.17,-252C1971.17,-252 1941.17,-252 1941.17,-252 1935.17,-252 1929.17,-246 1929.17,-240 1929.17,-240 1929.17,-228 1929.17,-228 1929.17,-222 1935.17,-216 1941.17,-216 1941.17,-216 1971.17,-216 1971.17,-216 1977.17,-216 1983.17,-222 1983.17,-228 1983.17,-228 1983.17,-240 1983.17,-240 1983.17,-246 1977.17,-252 1971.17,-252"/>
<text xml:space="preserve" text-anchor="middle" x="1956.17" y="-230.88" font-family="Courier,monospace" font-size="10.00">Source</text>
</g>
<!-- n65&#45;&gt;n69 -->
<g id="edge66" class="edge">
<title>n65&#45;&gt;n69</title>
<path fill="none" stroke="#757575" d="M1937.35,-287.7C1940.35,-279.3 1944,-269.07 1947.29,-259.86"/>
<polygon fill="#757575" stroke="#757575" points="1949.51,-260.95 1949.56,-253.53 1944.89,-259.3 1949.51,-260.95"/>
</g>
<!-- n67 -->
<g id="node68" class="node">
<title>n67</title>
<ellipse fill="#ffe0b2" stroke="#424242" cx="1859.17" cy="-162" rx="75.87" ry="18"/>
<text xml:space="preserve" text-anchor="middle" x="1859.17" y="-158.88" font-family="Courier,monospace" font-size="10.00">LValueDot field= y</text>
</g>
<!-- n66&#45;&gt;n67 -->
<g id="edge63" class="edge">
<title>n66&#45;&gt;n67</title>
<path fill="none" stroke="#757575" d="M1868.21,-215.7C1866.8,-207.47 1865.08,-197.48 1863.53,-188.42"/>
<polygon fill="#757575" stroke="#757575" points="1865.96,-188.08 1862.36,-181.6 1861.13,-188.91 1865.96,-188.08"/>
</g>
<!-- n68 -->
<g id="node69" class="node">
<title>n68</title>
<ellipse fill="#f3e5f5" stroke="#424242" cx="1859.17" cy="-90" rx="53.84" ry="18"/>
<text xml:space="preserve" text-anchor="middle" x="1859.17" y="-86.88" font-family="Courier,monospace" font-size="10.00">LValueID &#160;ex</text>
</g>
<!-- n67&#45;&gt;n68 -->
<g id="edge62" class="edge">
<title>n67&#45;&gt;n68</title>
<path fill="none" stroke="#757575" d="M1859.17,-143.7C1859.17,-135.47 1859.17,-125.48 1859.17,-116.42"/>
<polygon fill="#757575" stroke="#757575" points="1861.62,-116.62 1859.17,-109.62 1856.72,-116.62 1861.62,-116.62"/>
</g>
<!-- n70 -->
<g id="node71" class="node">
<title>n70</title>
<ellipse fill="#fff8e1" stroke="#424242" cx="1980.17" cy="-162" rx="27" ry="18"/>
<text xml:space="preserve" text-anchor="middle" x="1980.17" y="-158.88" font-family="Courier,monospace" font-size="10.00">5</text>
</g>
<!-- n69&#45;&gt;n70 -->
<g id="edge65" class="edge">
<title>n69&#45;&gt;n70</title>
<path fill="none" stroke="#757575" d="M1962.11,-215.7C1965.03,-207.18 1968.6,-196.76 1971.79,-187.45"/>
<polygon fill="#757575" stroke="#757575" points="1974.03,-188.47 1973.98,-181.05 1969.39,-186.88 1974.03,-188.47"/>
</g>
<!-- n72 -->
<g id="node73" class="node">
<title>n72</title>
<path fill="#f5f5f5" stroke="#424242" d="M2105.17,-252C2105.17,-252 2075.17,-252 2075.17,-252 2069.17,-252 2063.17,-246 2063.17,-240 2063.17,-240 2063.17,-228 2063.17,-228 2063.17,-222 2069.17,-216 2075.17,-216 2075.17,-216 2105.17,-216 2105.17,-216 2111.17,-216 2117.17,-222 2117.17,-228 2117.17,-228 2117.17,-240 2117.17,-240 2117.17,-246 2111.17,-252 2105.17,-252"/>
<text xml:space="preserve" text-anchor="middle" x="2090.17" y="-230.88" font-family="Courier,monospace" font-size="10.00">Target</text>
</g>
<!-- n71&#45;&gt;n72 -->
<g id="edge69" class="edge">
<title>n71&#45;&gt;n72</title>
<path fill="none" stroke="#757575" d="M2090.17,-287.7C2090.17,-279.47 2090.17,-269.48 2090.17,-260.42"/>
<polygon fill="#757575" stroke="#757575" points="2092.62,-260.62 2090.17,-253.62 2087.72,-260.62 2092.62,-260.62"/>
</g>
<!-- n74 -->
<g id="node75" class="node">
<title>n74</title>
<path fill="#f5f5f5" stroke="#424242" d="M2200.17,-252C2200.17,-252 2170.17,-252 2170.17,-252 2164.17,-252 2158.17,-246 2158.17,-240 2158.17,-240 2158.17,-228 2158.17,-228 2158.17,-222 2164.17,-216 2170.17,-216 2170.17,-216 2200.17,-216 2200.17,-216 2206.17,-216 2212.17,-222 2212.17,-228 2212.17,-228 2212.17,-240 2212.17,-240 2212.17,-246 2206.17,-252 2200.17,-252"/>
<text xml:space="preserve" text-anchor="middle" x="2185.17" y="-230.88" font-family="Courier,monospace" font-size="10.00">Source</text>
</g>
<!-- n71&#45;&gt;n74 -->
<g id="edge73" class="edge">
<title>n71&#45;&gt;n74</title>
<path fill="none" stroke="#757575" d="M2113.66,-287.7C2126.1,-278.53 2141.53,-267.16 2154.87,-257.33"/>
<polygon fill="#757575" stroke="#757575" points="2156.23,-259.37 2160.41,-253.24 2153.32,-255.42 2156.23,-259.37"/>
</g>
<!-- n73 -->
<g id="node74" class="node">
<title>n73</title>
<ellipse fill="#f3e5f5" stroke="#424242" cx="2090.17" cy="-162" rx="64.86" ry="18"/>
<text xml:space="preserve" text-anchor="middle" x="2090.17" y="-158.88" font-family="Courier,monospace" font-size="10.00">LValueID &#160;myint</text>
</g>
<!-- n72&#45;&gt;n73 -->
<g id="edge68" class="edge">
<title>n72&#45;&gt;n73</title>
<path fill="none" stroke="#757575" d="M2090.17,-215.7C2090.17,-207.47 2090.17,-197.48 2090.17,-188.42"/>
<polygon fill="#757575" stroke="#757575" points="2092.62,-188.62 2090.17,-181.62 2087.72,-188.62 2092.62,-188.62"/>
</g>
<!-- n75 -->
<g id="node76" class="node">
<title>n75</title>
<path fill="#f5f5f5" stroke="#424242" d="M2231.17,-180C2231.17,-180 2185.17,-180 2185.17,-180 2179.17,-180 2173.17,-174 2173.17,-168 2173.17,-168 2173.17,-156 2173.17,-156 2173.17,-150 2179.17,-144 2185.17,-144 2185.17,-144 2231.17,-144 2231.17,-144 2237.17,-144 2243.17,-150 2243.17,-156 2243.17,-156 2243.17,-168 2243.17,-168 2243.17,-174 2237.17,-180 2231.17,-180"/>
<text xml:space="preserve" text-anchor="middle" x="2208.17" y="-158.88" font-family="Courier,monospace" font-size="10.00">call &#160;add</text>
</g>
<!-- n74&#45;&gt;n75 -->
<g id="edge72" class="edge">
<title>n74&#45;&gt;n75</title>
<path fill="none" stroke="#757575" d="M2190.86,-215.7C2193.59,-207.39 2196.91,-197.28 2199.91,-188.14"/>
<polygon fill="#757575" stroke="#757575" points="2202.22,-188.96 2202.08,-181.54 2197.57,-187.43 2202.22,-188.96"/>
</g>
<!-- n76 -->
<g id="node77" class="node">
<title>n76</title>
<path fill="#f5f5f5" stroke="#424242" d="M2161.17,-108C2161.17,-108 2131.17,-108 2131.17,-108 2125.17,-108 2119.17,-102 2119.17,-96 2119.17,-96 2119.17,-84 2119.17,-84 2119.17,-78 2125.17,-72 2131.17,-72 2131.17,-72 2161.17,-72 2161.17,-72 2167.17,-72 2173.17,-78 2173.17,-84 2173.17,-84 2173.17,-96 2173.17,-96 2173.17,-102 2167.17,-108 2161.17,-108"/>
<text xml:space="preserve" text-anchor="middle" x="2146.17" y="-86.88" font-family="Courier,monospace" font-size="10.00">Args</text>
</g>
<!-- n75&#45;&gt;n76 -->
<g id="edge71" class="edge">
<title>n75&#45;&gt;n76</title>
<path fill="none" stroke="#757575" d="M2192.85,-143.7C2185.04,-134.88 2175.43,-124.03 2166.96,-114.47"/>
<polygon fill="#757575" stroke="#757575" points="2168.8,-112.85 2162.33,-109.24 2165.13,-116.1 2168.8,-112.85"/>
</g>
<!-- n77 -->
<g id="node78" class="node">
<title>n77</title>
<ellipse fill="#e8f5e9" stroke="#424242" cx="2146.17" cy="-18" rx="28.15" ry="18"/>
<text xml:space="preserve" text-anchor="middle" x="2146.17" y="-14.88" font-family="Courier,monospace" font-size="10.00">Id ex</text>
</g>
<!-- n76&#45;&gt;n77 -->
<g id="edge70" class="edge">
<title>n76&#45;&gt;n77</title>
<path fill="none" stroke="#757575" d="M2146.17,-71.7C2146.17,-63.47 2146.17,-53.48 2146.17,-44.42"/>
<polygon fill="#757575" stroke="#757575" points="2148.62,-44.62 2146.17,-37.62 2143.72,-44.62 2148.62,-44.62"/>
</g>
<!-- n79 -->
<g id="node80" class="node">
<title>n79</title>
<path fill="#f5f5f5" stroke="#424242" d="M2324.17,-252C2324.17,-252 2278.17,-252 2278.17,-252 2272.17,-252 2266.17,-246 2266.17,-240 2266.17,-240 2266.17,-228 2266.17,-228 2266.17,-222 2272.17,-216 2278.17,-216 2278.17,-216 2324.17,-216 2324.17,-216 2330.17,-216 2336.17,-222 2336.17,-228 2336.17,-228 2336.17,-240 2336.17,-240 2336.17,-246 2330.17,-252 2324.17,-252"/>
<text xml:space="preserve" text-anchor="middle" x="2301.17" y="-230.88" font-family="Courier,monospace" font-size="10.00">Condition</text>
</g>
<!-- n78&#45;&gt;n79 -->
<g id="edge78" class="edge">
<title>n78&#45;&gt;n79</title>
<path fill="none" stroke="#757575" d="M2301.17,-287.7C2301.17,-279.47 2301.17,-269.48 2301.17,-260.42"/>
<polygon fill="#757575" stroke="#757575" points="2303.62,-260.62 2301.17,-253.62 2298.72,-260.62 2303.62,-260.62"/>
</g>
<!-- n83 -->
<g id="node84" class="node">
<title>n83</title>
<path fill="#f5f5f5" stroke="#424242" d="M2415.17,-252C2415.17,-252 2369.17,-252 2369.17,-252 2363.17,-252 2357.17,-246 2357.17,-240 2357.17,-240 2357.17,-228 2357.17,-228 2357.17,-222 2363.17,-216 2369.17,-216 2369.17,-216 2415.17,-216 2415.17,-216 2421.17,-216 2427.17,-222 2427.17,-228 2427.17,-228 2427.17,-240 2427.17,-240 2427.17,-246 2421.17,-252 2415.17,-252"/>
<text xml:space="preserve" text-anchor="middle" x="2392.17" y="-230.88" font-family="Courier,monospace" font-size="10.00">then&#45;body</text>
</g>
<!-- n78&#45;&gt;n83 -->
<g id="edge82" class="edge">
<title>n78&#45;&gt;n83</title>
<path fill="none" stroke="#757575" d="M2323.67,-287.7C2335.59,-278.53 2350.37,-267.16 2363.15,-257.33"/>
<polygon fill="#757575" stroke="#757575" points="2364.37,-259.48 2368.42,-253.27 2361.38,-255.6 2364.37,-259.48"/>
</g>
<!-- n87 -->
<g id="node88" class="node">
<title>n87</title>
<path fill="#f5f5f5" stroke="#424242" d="M2505.17,-252C2505.17,-252 2459.17,-252 2459.17,-252 2453.17,-252 2447.17,-246 2447.17,-240 2447.17,-240 2447.17,-228 2447.17,-228 2447.17,-222 2453.17,-216 2459.17,-216 2459.17,-216 2505.17,-216 2505.17,-216 2511.17,-216 2517.17,-222 2517.17,-228 2517.17,-228 2517.17,-240 2517.17,-240 2517.17,-246 2511.17,-252 2505.17,-252"/>
<text xml:space="preserve" text-anchor="middle" x="2482.17" y="-230.88" font-family="Courier,monospace" font-size="10.00">else&#45;body</text>
</g>
<!-- n78&#45;&gt;n87 -->
<g id="edge86" class="edge">
<title>n78&#45;&gt;n87</title>
<path fill="none" stroke="#757575" d="M2328.57,-291.74C2331.46,-290.44 2334.37,-289.17 2337.17,-288 2380.39,-269.98 2392.21,-268.11 2436.17,-252 2437.16,-251.64 2438.16,-251.27 2439.17,-250.9"/>
<polygon fill="#757575" stroke="#757575" points="2439.87,-253.25 2445.6,-248.54 2438.18,-248.65 2439.87,-253.25"/>
</g>
<!-- n80 -->
<g id="node81" class="node">
<title>n80</title>
<path fill="#ffe0b2" stroke="#424242" d="M2290.24,-175.06C2290.24,-175.06 2272.3,-166.94 2272.3,-166.94 2266.84,-164.47 2266.84,-159.53 2272.3,-157.06 2272.3,-157.06 2290.24,-148.94 2290.24,-148.94 2295.71,-146.47 2306.64,-146.47 2312.11,-148.94 2312.11,-148.94 2330.04,-157.06 2330.04,-157.06 2335.51,-159.53 2335.51,-164.47 2330.04,-166.94 2330.04,-166.94 2312.11,-175.06 2312.11,-175.06 2306.64,-177.53 2295.71,-177.53 2290.24,-175.06"/>
<text xml:space="preserve" text-anchor="middle" x="2301.17" y="-158.88" font-family="Courier,monospace" font-size="10.00">Op &lt;=</text>
</g>
<!-- n79&#45;&gt;n80 -->
<g id="edge77" class="edge">
<title>n79&#45;&gt;n80</title>
<path fill="none" stroke="#757575" d="M2301.17,-215.7C2301.17,-207.47 2301.17,-197.48 2301.17,-188.42"/>
<polygon fill="#757575" stroke="#757575" points="2303.62,-188.62 2301.17,-181.62 2298.72,-188.62 2303.62,-188.62"/>
</g>
<!-- n81 -->
<g id="node82" class="node">
<title>n81</title>
<ellipse fill="#e8f5e9" stroke="#424242" cx="2230.17" cy="-90" rx="39.16" ry="18"/>
<text xml:space="preserve" text-anchor="middle" x="2230.17" y="-86.88" font-family="Courier,monospace" font-size="10.00">Id myint</text>
</g>
<!-- n80&#45;&gt;n81 -->
<g id="edge75" class="edge">
<title>n80&#45;&gt;n81</title>
<path fill="none" stroke="#757575" d="M2289.13,-149.13C2279,-139.14 2264.25,-124.6 2252.04,-112.56"/>
<polygon fill="#757575" stroke="#757575" points="2254.07,-111.12 2247.36,-107.95 2250.62,-114.6 2254.07,-111.12"/>
</g>
<!-- n82 -->
<g id="node83" class="node">
<title>n82</title>
<ellipse fill="#fff8e1" stroke="#424242" cx="2314.17" cy="-90" rx="27" ry="18"/>
<text xml:space="preserve" text-anchor="middle" x="2314.17" y="-86.88" font-family="Courier,monospace" font-size="10.00">12</text>
</g>
<!-- n80&#45;&gt;n82 -->
<g id="edge76" class="edge">
<title>n80&#45;&gt;n82</title>
<path fill="none" stroke="#757575" d="M2304.12,-145.12C2305.7,-136.63 2307.68,-125.98 2309.46,-116.38"/>
<polygon fill="#757575" stroke="#757575" points="2311.82,-117.11 2310.69,-109.78 2307,-116.22 2311.82,-117.11"/>
</g>
<!-- n84 -->
<g id="node85" class="node">
<title>n84</title>
<path fill="#f5f5f5" stroke="#424242" d="M2423.17,-180C2423.17,-180 2371.17,-180 2371.17,-180 2365.17,-180 2359.17,-174 2359.17,-168 2359.17,-168 2359.17,-156 2359.17,-156 2359.17,-150 2365.17,-144 2371.17,-144 2371.17,-144 2423.17,-144 2423.17,-144 2429.17,-144 2435.17,-150 2435.17,-156 2435.17,-156 2435.17,-168 2435.17,-168 2435.17,-174 2429.17,-180 2423.17,-180"/>
<text xml:space="preserve" text-anchor="middle" x="2397.17" y="-158.88" font-family="Courier,monospace" font-size="10.00">Print endl</text>
</g>
<!-- n83&#45;&gt;n84 -->
<g id="edge81" class="edge">
<title>n83&#45;&gt;n84</title>
<path fill="none" stroke="#757575" d="M2393.41,-215.7C2394,-207.47 2394.71,-197.48 2395.36,-188.42"/>
<polygon fill="#757575" stroke="#757575" points="2397.79,-188.77 2395.84,-181.61 2392.9,-188.42 2397.79,-188.77"/>
</g>
<!-- n85 -->
<g id="node86" class="node">
<title>n85</title>
<path fill="#f5f5f5" stroke="#424242" d="M2423.17,-108C2423.17,-108 2371.17,-108 2371.17,-108 2365.17,-108 2359.17,-102 2359.17,-96 2359.17,-96 2359.17,-84 2359.17,-84 2359.17,-78 2365.17,-72 2371.17,-72 2371.17,-72 2423.17,-72 2423.17,-72 2429.17,-72 2435.17,-78 2435.17,-84 2435.17,-84 2435.17,-96 2435.17,-96 2435.17,-102 2429.17,-108 2423.17,-108"/>
<text xml:space="preserve" text-anchor="middle" x="2397.17" y="-86.88" font-family="Courier,monospace" font-size="10.00">Expression</text>
</g>
<!-- n84&#45;&gt;n85 -->
<g id="edge80" class="edge">
<title>n84&#45;&gt;n85</title>
<path fill="none" stroke="#757575" d="M2397.17,-143.7C2397.17,-135.47 2397.17,-125.48 2397.17,-116.42"/>
<polygon fill="#757575" stroke="#757575" points="2399.62,-116.62 2397.17,-109.62 2394.72,-116.62 2399.62,-116.62"/>
</g>
<!-- n86 -->
<g id="node87" class="node">
<title>n86</title>
<ellipse fill="#e8f5e9" stroke="#424242" cx="2397.17" cy="-18" rx="39.16" ry="18"/>
<text xml:space="preserve" text-anchor="middle" x="2397.17" y="-14.88" font-family="Courier,monospace" font-size="10.00">Id myint</text>
</g>
<!-- n85&#45;&gt;n86 -->
<g id="edge79" class="edge">
<title>n85&#45;&gt;n86</title>
<path fill="none" stroke="#757575" d="M2397.17,-71.7C2397.17,-63.47 2397.17,-53.48 2397.17,-44.42"/>
<polygon fill="#757575" stroke="#757575" points="2399.62,-44.62 2397.17,-37.62 2394.72,-44.62 2399.62,-44.62"/>
</g>
<!-- n88 -->
<g id="node89" class="node">
<title>n88</title>
<path fill="#f5f5f5" stroke="#424242" d="M2517.17,-180C2517.17,-180 2465.17,-180 2465.17,-180 2459.17,-180 2453.17,-174 2453.17,-168 2453.17,-168 2453.17,-156 2453.17,-156 2453.17,-150 2459.17,-144 2465.17,-144 2465.17,-144 2517.17,-144 2517.17,-144 2523.17,-144 2529.17,-150 2529.17,-156 2529.17,-156 2529.17,-168 2529.17,-168 2529.17,-174 2523.17,-180 2517.17,-180"/>
<text xml:space="preserve" text-anchor="middle" x="2491.17" y="-158.88" font-family="Courier,monospace" font-size="10.00">Print endl</text>
</g>
<!-- n87&#45;&gt;n88 -->
<g id="edge85" class="edge">
<title>n87&#45;&gt;n88</title>
<path fill="none" stroke="#757575" d="M2484.4,-215.7C2485.45,-207.47 2486.74,-197.48 2487.9,-188.42"/>
<polygon fill="#757575" stroke="#757575" points="2490.32,-188.86 2488.78,-181.61 2485.46,-188.24 2490.32,-188.86"/>
</g>
<!-- n89 -->
<g id="node90" class="node">
<title>n89</title>
<path fill="#f5f5f5" stroke="#424242" d="M2517.17,-108C2517.17,-108 2465.17,-108 2465.17,-108 2459.17,-108 2453.17,-102 2453.17,-96 2453.17,-96 2453.17,-84 2453.17,-84 2453.17,-78 2459.17,-72 2465.17,-72 2465.17,-72 2517.17,-72 2517.17,-72 2523.17,-72 2529.17,-78 2529.17,-84 2529.17,-84 2529.17,-96 2529.17,-96 2529.17,-102 2523.17,-108 2517.17,-108"/>
<text xml:space="preserve" text-anchor="middle" x="2491.17" y="-86.88" font-family="Courier,monospace" font-size="10.00">Expression</text>
</g>
<!-- n88&#45;&gt;n89 -->
<g id="edge84" class="edge">
<title>n88&#45;&gt;n89</title>
<path fill="none" stroke="#757575" d="M2491.17,-143.7C2491.17,-135.47 2491.17,-125.48 2491.17,-116.42"/>
<polygon fill="#757575" stroke="#757575" points="2493.62,-116.62 2491.17,-109.62 2488.72,-116.62 2493.62,-116.62"/>
</g>
<!-- n90 -->
<g id="node91" class="node">
<title>n90</title>
<ellipse fill="#fff8e1" stroke="#424242" cx="2491.17" cy="-18" rx="27" ry="18"/>
<text xml:space="preserve" text-anchor="middle" x="2491.17" y="-14.88" font-family="Courier,monospace" font-size="10.00">0</text>
</g>
<!-- n89&#45;&gt;n90 -->
<g id="edge83" class="edge">
<title>n89&#45;&gt;n90</title>
<path fill="none" stroke="#757575" d="M2491.17,-71.7C2491.17,-63.47 2491.17,-53.48 2491.17,-44.42"/>
<polygon fill="#757575" stroke="#757575" points="2493.62,-44.62 2491.17,-37.62 2488.72,-44.62 2493.62,-44.62"/>
</g>
<!-- n92 -->
<g id="node93" class="node">
<title>n92</title>
<path fill="#f5f5f5" stroke="#424242" d="M2600.17,-252C2600.17,-252 2548.17,-252 2548.17,-252 2542.17,-252 2536.17,-246 2536.17,-240 2536.17,-240 2536.17,-228 2536.17,-228 2536.17,-222 2542.17,-216 2548.17,-216 2548.17,-216 2600.17,-216 2600.17,-216 2606.17,-216 2612.17,-222 2612.17,-228 2612.17,-228 2612.17,-240 2612.17,-240 2612.17,-246 2606.17,-252 2600.17,-252"/>
<text xml:space="preserve" text-anchor="middle" x="2574.17" y="-230.88" font-family="Courier,monospace" font-size="10.00">Expression</text>
</g>
<!-- n91&#45;&gt;n92 -->
<g id="edge89" class="edge">
<title>n91&#45;&gt;n92</title>
<path fill="none" stroke="#757575" d="M2400.51,-291.6C2403.41,-290.32 2406.34,-289.1 2409.17,-288 2459.9,-268.33 2474.52,-269.09 2526.17,-252 2526.76,-251.81 2527.34,-251.61 2527.93,-251.42"/>
<polygon fill="#757575" stroke="#757575" points="2528.43,-253.83 2534.28,-249.27 2526.86,-249.19 2528.43,-253.83"/>
</g>
<!-- n93 -->
<g id="node94" class="node">
<title>n93</title>
<ellipse fill="#e8f5e9" stroke="#424242" cx="2575.17" cy="-162" rx="28.15" ry="18"/>
<text xml:space="preserve" text-anchor="middle" x="2575.17" y="-158.88" font-family="Courier,monospace" font-size="10.00">Id ex</text>
</g>
<!-- n92&#45;&gt;n93 -->
<g id="edge88" class="edge">
<title>n92&#45;&gt;n93</title>
<path fill="none" stroke="#757575" d="M2574.42,-215.7C2574.54,-207.47 2574.68,-197.48 2574.81,-188.42"/>
<polygon fill="#757575" stroke="#757575" points="2577.26,-188.65 2574.91,-181.62 2572.36,-188.58 2577.26,-188.65"/>
</g>
</g>
</svg>
